<svg width="108" height="108" viewBox="0 0 108 108" fill="none" xmlns="http://www.w3.org/2000/svg">
<path d="M0 54C0 83.8234 24.1766 108 54 108C83.8234 108 108 83.8234 108 54C108 24.1766 83.8234 0 54 0C24.1766 0 0 24.1766 0 54Z" fill="#1877F2"/>
<path d="M81 54C81 39.15 68.85 27 54 27C39.15 27 27 39.15 27 54C27 67.5 36.7875 78.6375 49.6125 80.6625V61.7625H42.8625V54H49.6125V47.925C49.6125 41.175 53.6625 37.4625 59.7375 37.4625C62.775 37.4625 65.8125 38.1375 65.8125 38.1375V44.8875H62.4375C59.0625 44.8875 58.05 46.9125 58.05 48.9375V54H65.475L64.125 61.7625H57.7125V81C71.2125 78.975 81 67.5 81 54Z" fill="white"/>
</svg>
