<svg width="108" height="108" viewBox="0 0 108 108" fill="none" xmlns="http://www.w3.org/2000/svg">
<path d="M0 54C0 83.8234 24.1766 108 54 108C83.8234 108 108 83.8234 108 54C108 24.1766 83.8234 0 54 0C24.1766 0 0 24.1766 0 54Z" fill="#F00073"/>
<path d="M54.0008 31.05C61.4258 31.05 62.4383 31.05 65.4758 31.05C68.1758 31.05 69.5258 31.725 70.5383 32.0625C71.8883 32.7375 72.9008 33.075 73.9133 34.0875C74.9258 35.1 75.6008 36.1125 75.9383 37.4625C76.2758 38.475 76.6133 39.825 76.9508 42.525C76.9508 45.5625 76.9508 46.2375 76.9508 54C76.9508 61.7625 76.9508 62.4375 76.9508 65.475C76.9508 68.175 76.2758 69.525 75.9383 70.5375C75.2633 71.8875 74.9258 72.9 73.9133 73.9125C72.9008 74.925 71.8883 75.6 70.5383 75.9375C69.5258 76.275 68.1758 76.6125 65.4758 76.95C62.4383 76.95 61.7633 76.95 54.0008 76.95C46.2383 76.95 45.5633 76.95 42.5258 76.95C39.8258 76.95 38.4758 76.275 37.4633 75.9375C36.1133 75.2625 35.1008 74.925 34.0883 73.9125C33.0758 72.9 32.4008 71.8875 32.0633 70.5375C31.7258 69.525 31.3883 68.175 31.0508 65.475C31.0508 62.4375 31.0508 61.7625 31.0508 54C31.0508 46.2375 31.0508 45.5625 31.0508 42.525C31.0508 39.825 31.7258 38.475 32.0633 37.4625C32.7383 36.1125 33.0758 35.1 34.0883 34.0875C35.1008 33.075 36.1133 32.4 37.4633 32.0625C38.4758 31.725 39.8258 31.3875 42.5258 31.05C45.5633 31.05 46.5758 31.05 54.0008 31.05ZM54.0008 25.9875C46.2383 25.9875 45.5633 25.9875 42.5258 25.9875C39.4883 25.9875 37.4633 26.6625 35.7758 27.3375C34.0883 28.0125 32.4008 29.025 30.7133 30.7125C29.0258 32.4 28.3508 33.75 27.3383 35.775C26.6633 37.4625 26.3258 39.4875 25.9883 42.525C25.9883 45.5625 25.9883 46.575 25.9883 54C25.9883 61.7625 25.9883 62.4375 25.9883 65.475C25.9883 68.5125 26.6633 70.5375 27.3383 72.225C28.0133 73.9125 29.0258 75.6 30.7133 77.2875C32.4008 78.975 33.7508 79.65 35.7758 80.6625C37.4633 81.3375 39.4883 81.675 42.5258 82.0125C45.5633 82.0125 46.5758 82.0125 54.0008 82.0125C61.4258 82.0125 62.4383 82.0125 65.4758 82.0125C68.5133 82.0125 70.5383 81.3375 72.2258 80.6625C73.9133 79.9875 75.6008 78.975 77.2883 77.2875C78.9758 75.6 79.6508 74.25 80.6633 72.225C81.3383 70.5375 81.6758 68.5125 82.0133 65.475C82.0133 62.4375 82.0133 61.425 82.0133 54C82.0133 46.575 82.0133 45.5625 82.0133 42.525C82.0133 39.4875 81.3383 37.4625 80.6633 35.775C79.9883 34.0875 78.9758 32.4 77.2883 30.7125C75.6008 29.025 74.2508 28.35 72.2258 27.3375C70.5383 26.6625 68.5133 26.325 65.4758 25.9875C62.4383 25.9875 61.7633 25.9875 54.0008 25.9875Z" fill="white"/>
<path d="M54.0008 39.4875C45.9008 39.4875 39.4883 45.9 39.4883 54C39.4883 62.1 45.9008 68.5125 54.0008 68.5125C62.1008 68.5125 68.5133 62.1 68.5133 54C68.5133 45.9 62.1008 39.4875 54.0008 39.4875ZM54.0008 63.45C48.9383 63.45 44.5508 59.4 44.5508 54C44.5508 48.9375 48.6008 44.55 54.0008 44.55C59.0633 44.55 63.4508 48.6 63.4508 54C63.4508 59.0625 59.0633 63.45 54.0008 63.45Z" fill="white"/>
<path d="M68.8508 42.525C70.7147 42.525 72.2258 41.014 72.2258 39.15C72.2258 37.286 70.7147 35.775 68.8508 35.775C66.9868 35.775 65.4758 37.286 65.4758 39.15C65.4758 41.014 66.9868 42.525 68.8508 42.525Z" fill="white"/>
</svg>
