<svg width="108" height="108" viewBox="0 0 108 108" fill="none" xmlns="http://www.w3.org/2000/svg">
<path d="M108 54C108 24.1766 83.8234 0 54 0C24.1766 0 0 24.1766 0 54C0 83.8234 24.1766 108 54 108C83.8234 108 108 83.8234 108 54Z" fill="#2787F5" fill-opacity="0.1"/>
<path d="M27 52.875C27 40.6774 27 34.5786 30.7893 30.7893C34.5786 27 40.6774 27 52.875 27H55.125C67.3226 27 73.4214 27 77.2107 30.7893C81 34.5786 81 40.6774 81 52.875V55.125C81 67.3226 81 73.4214 77.2107 77.2107C73.4214 81 67.3226 81 55.125 81H52.875C40.6774 81 34.5786 81 30.7893 77.2107C27 73.4214 27 67.3226 27 55.125L27 52.875Z" fill="#2787F5"/>
<path fill-rule="evenodd" clip-rule="evenodd" d="M41.6247 43.875H37.6863C36.561 43.875 36.3359 44.4047 36.3359 44.9885C36.3359 46.0315 37.6712 51.2041 42.5529 58.0454C45.8074 62.7174 50.3927 65.25 54.5652 65.25C57.0687 65.25 57.3784 64.6875 57.3784 63.7187V60.1875C57.3784 59.0625 57.6155 58.8379 58.4082 58.8379C58.9924 58.8379 59.9938 59.13 62.3304 61.3826C65.0008 64.0523 65.441 65.25 66.943 65.25H70.8814C72.0068 65.25 72.5694 64.6875 72.2448 63.5775C71.8896 62.4711 70.6147 60.8659 68.9229 58.9632C68.0049 57.8785 66.628 56.7106 66.2108 56.1265C65.6267 55.3756 65.7935 55.0419 66.2108 54.3745C66.2108 54.3745 71.0091 47.6166 71.5098 45.3224C71.7602 44.488 71.5099 43.875 70.3188 43.875H66.3804C65.379 43.875 64.9173 44.4047 64.6669 44.9885C64.6669 44.9885 62.6642 49.8692 59.827 53.0396C58.909 53.9572 58.4917 54.2493 57.991 54.2493C57.7406 54.2493 57.3783 53.9573 57.3783 53.1231V45.3224C57.3783 44.3212 57.0877 43.875 56.2531 43.875H50.0641C49.4384 43.875 49.0619 44.3396 49.0619 44.7801C49.0619 45.7291 50.4806 45.948 50.6268 48.6178V54.4163C50.6268 55.6875 50.3971 55.918 49.8965 55.918C48.5613 55.918 45.3136 51.0155 43.3873 45.4058C43.0099 44.3154 42.6312 43.875 41.6247 43.875V43.875Z" fill="white"/>
</svg>
