<svg width="48" height="48" viewBox="0 0 48 48" fill="none" xmlns="http://www.w3.org/2000/svg">
<rect y="0.000396729" width="48" height="48" rx="24" fill="url(#paint0_linear_125_3551)" fill-opacity="0.1"/>
<g clip-path="url(#clip0_125_3551)">
<path d="M23.9998 34.8334C18.0166 34.8334 13.1665 29.9833 13.1665 24C13.1665 18.0168 18.0166 13.1667 23.9998 13.1667C29.9831 13.1667 34.8332 18.0168 34.8332 24C34.8332 29.9833 29.9831 34.8334 23.9998 34.8334ZM22.9165 28.3334V30.5H25.0832V28.3334H26.1665C26.6695 28.3334 27.1625 28.1933 27.5904 27.9289C28.0182 27.6644 28.364 27.2861 28.5889 26.8362C28.8138 26.3864 28.9091 25.8827 28.8639 25.3818C28.8187 24.8809 28.635 24.4024 28.3332 24C28.635 23.5976 28.8187 23.1192 28.8639 22.6182C28.9091 22.1173 28.8138 21.6137 28.5889 21.1638C28.364 20.7139 28.0182 20.3356 27.5904 20.0712C27.1625 19.8067 26.6695 19.6667 26.1665 19.6667H25.0832V17.5H22.9165V19.6667H19.6665V28.3334H22.9165ZM21.8332 25.0834H26.1665C26.3102 25.0834 26.4479 25.1404 26.5495 25.242C26.6511 25.3436 26.7082 25.4814 26.7082 25.625C26.7082 25.7687 26.6511 25.9065 26.5495 26.008C26.4479 26.1096 26.3102 26.1667 26.1665 26.1667H21.8332V25.0834ZM21.8332 21.8334H26.1665C26.3102 21.8334 26.4479 21.8904 26.5495 21.992C26.6511 22.0936 26.7082 22.2314 26.7082 22.375C26.7082 22.5187 26.6511 22.6565 26.5495 22.758C26.4479 22.8596 26.3102 22.9167 26.1665 22.9167H21.8332V21.8334Z" fill="url(#paint1_linear_125_3551)"/>
</g>
<defs>
<linearGradient id="paint0_linear_125_3551" x1="0" y1="0.000396729" x2="50.4507" y2="2.73164" gradientUnits="userSpaceOnUse">
<stop stop-color="#194BFB"/>
<stop offset="1" stop-color="#00E675"/>
</linearGradient>
<linearGradient id="paint1_linear_125_3551" x1="13.1665" y1="13.1667" x2="35.9394" y2="14.3995" gradientUnits="userSpaceOnUse">
<stop stop-color="#194BFB"/>
<stop offset="1" stop-color="#00E675"/>
</linearGradient>
<clipPath id="clip0_125_3551">
<rect width="26" height="26" fill="white" transform="translate(11 11)"/>
</clipPath>
</defs>
</svg>
