<svg width="48" height="48" viewBox="0 0 48 48" fill="none" xmlns="http://www.w3.org/2000/svg">
<rect y="0.000183105" width="48" height="48" rx="24" fill="url(#paint0_linear_125_3509)" fill-opacity="0.1"/>
<g clip-path="url(#clip0_125_3509)">
<path d="M20.7498 25.0833V28.3333H27.2498V25.0833H34.8332V32.6666C34.8332 32.954 34.719 33.2295 34.5159 33.4327C34.3127 33.6358 34.0372 33.75 33.7498 33.75H14.2498C13.9625 33.75 13.687 33.6358 13.4838 33.4327C13.2806 33.2295 13.1665 32.954 13.1665 32.6666V25.0833H20.7498ZM22.9165 22.9166H25.0832V26.1666H22.9165V22.9166ZM18.5832 16.4166V13.1666C18.5832 12.8793 18.6973 12.6038 18.9005 12.4006C19.1036 12.1974 19.3792 12.0833 19.6665 12.0833H28.3332C28.6205 12.0833 28.896 12.1974 29.0992 12.4006C29.3024 12.6038 29.4165 12.8793 29.4165 13.1666V16.4166H33.7498C34.0372 16.4166 34.3127 16.5308 34.5159 16.7339C34.719 16.9371 34.8332 17.2127 34.8332 17.5V22.9166H27.2498V20.75H20.7498V22.9166H13.1665V17.5C13.1665 17.2127 13.2806 16.9371 13.4838 16.7339C13.687 16.5308 13.9625 16.4166 14.2498 16.4166H18.5832ZM20.7498 14.25V16.4166H27.2498V14.25H20.7498Z" fill="url(#paint1_linear_125_3509)"/>
</g>
<defs>
<linearGradient id="paint0_linear_125_3509" x1="0" y1="0.000183105" x2="50.4507" y2="2.73143" gradientUnits="userSpaceOnUse">
<stop stop-color="#194BFB"/>
<stop offset="1" stop-color="#00E675"/>
</linearGradient>
<linearGradient id="paint1_linear_125_3509" x1="13.1665" y1="12.0833" x2="35.9394" y2="13.3162" gradientUnits="userSpaceOnUse">
<stop stop-color="#194BFB"/>
<stop offset="1" stop-color="#00E675"/>
</linearGradient>
<clipPath id="clip0_125_3509">
<rect width="26" height="26" fill="white" transform="translate(11 11)"/>
</clipPath>
</defs>
</svg>
