<svg width="48" height="48" viewBox="0 0 48 48" fill="none" xmlns="http://www.w3.org/2000/svg">
<rect y="0.000244141" width="48" height="48" rx="24" fill="url(#paint0_linear_125_3410)"/>
<g clip-path="url(#clip0_125_3410)">
<path d="M20.7498 25.0834V28.3334H27.2498V25.0834H34.8332V32.6667C34.8332 32.954 34.719 33.2296 34.5159 33.4327C34.3127 33.6359 34.0372 33.75 33.7498 33.75H14.2498C13.9625 33.75 13.687 33.6359 13.4838 33.4327C13.2806 33.2296 13.1665 32.954 13.1665 32.6667V25.0834H20.7498ZM22.9165 22.9167H25.0832V26.1667H22.9165V22.9167ZM18.5832 16.4167V13.1667C18.5832 12.8794 18.6973 12.6038 18.9005 12.4007C19.1036 12.1975 19.3792 12.0834 19.6665 12.0834H28.3332C28.6205 12.0834 28.896 12.1975 29.0992 12.4007C29.3024 12.6038 29.4165 12.8794 29.4165 13.1667V16.4167H33.7498C34.0372 16.4167 34.3127 16.5308 34.5159 16.734C34.719 16.9372 34.8332 17.2127 34.8332 17.5V22.9167H27.2498V20.75H20.7498V22.9167H13.1665V17.5C13.1665 17.2127 13.2806 16.9372 13.4838 16.734C13.687 16.5308 13.9625 16.4167 14.2498 16.4167H18.5832ZM20.7498 14.25V16.4167H27.2498V14.25H20.7498Z" fill="white"/>
</g>
<defs>
<linearGradient id="paint0_linear_125_3410" x1="0" y1="0.000244141" x2="50.4507" y2="2.73149" gradientUnits="userSpaceOnUse">
<stop stop-color="#194BFB"/>
<stop offset="1" stop-color="#00E675"/>
</linearGradient>
<clipPath id="clip0_125_3410">
<rect width="26" height="26" fill="white" transform="translate(11 11.0001)"/>
</clipPath>
</defs>
</svg>
