<svg width="48" height="48" viewBox="0 0 48 48" fill="none" xmlns="http://www.w3.org/2000/svg">
<rect y="0.000579834" width="48" height="48" rx="24" fill="url(#paint0_linear_125_3593)" fill-opacity="0.1"/>
<g clip-path="url(#clip0_125_3593)">
<path d="M15.3335 34.8334C15.3335 32.5349 16.2466 30.3305 17.8719 28.7052C19.4972 27.0799 21.7016 26.1668 24.0002 26.1668C26.2987 26.1668 28.5031 27.0799 30.1284 28.7052C31.7537 30.3305 32.6668 32.5349 32.6668 34.8334H15.3335ZM24.0002 25.0834C20.4089 25.0834 17.5002 22.1747 17.5002 18.5834C17.5002 14.9922 20.4089 12.0834 24.0002 12.0834C27.5914 12.0834 30.5002 14.9922 30.5002 18.5834C30.5002 22.1747 27.5914 25.0834 24.0002 25.0834Z" fill="url(#paint1_linear_125_3593)"/>
</g>
<defs>
<linearGradient id="paint0_linear_125_3593" x1="0" y1="0.000579834" x2="50.4507" y2="2.73182" gradientUnits="userSpaceOnUse">
<stop stop-color="#194BFB"/>
<stop offset="1" stop-color="#00E675"/>
</linearGradient>
<linearGradient id="paint1_linear_125_3593" x1="15.3335" y1="12.0834" x2="33.5742" y2="12.8358" gradientUnits="userSpaceOnUse">
<stop stop-color="#194BFB"/>
<stop offset="1" stop-color="#00E675"/>
</linearGradient>
<clipPath id="clip0_125_3593">
<rect width="26" height="26" fill="white" transform="translate(11 11.0001)"/>
</clipPath>
</defs>
</svg>
