<svg width="21" height="20" viewBox="0 0 21 20" fill="none" xmlns="http://www.w3.org/2000/svg">
<path d="M0.833313 19.6667C0.833313 17.7218 1.60593 15.8565 2.9812 14.4812C4.35646 13.106 6.22173 12.3334 8.16665 12.3334C10.1116 12.3334 11.9768 13.106 13.3521 14.4812C14.7274 15.8565 15.5 17.7218 15.5 19.6667H13.6666C13.6666 18.208 13.0872 16.809 12.0557 15.7776C11.0243 14.7461 9.62534 14.1667 8.16665 14.1667C6.70796 14.1667 5.30901 14.7461 4.27756 15.7776C3.24611 16.809 2.66665 18.208 2.66665 19.6667H0.833313ZM8.16665 11.4167C5.1279 11.4167 2.66665 8.95544 2.66665 5.91669C2.66665 2.87794 5.1279 0.416687 8.16665 0.416687C11.2054 0.416687 13.6666 2.87794 13.6666 5.91669C13.6666 8.95544 11.2054 11.4167 8.16665 11.4167ZM8.16665 9.58335C10.1925 9.58335 11.8333 7.94252 11.8333 5.91669C11.8333 3.89085 10.1925 2.25002 8.16665 2.25002C6.14081 2.25002 4.49998 3.89085 4.49998 5.91669C4.49998 7.94252 6.14081 9.58335 8.16665 9.58335ZM15.7603 12.9778C17.0485 13.558 18.1418 14.4978 18.9087 15.6844C19.6756 16.871 20.0835 18.2538 20.0833 19.6667H18.25C18.2502 18.607 17.9443 17.5698 17.3691 16.6798C16.794 15.7898 15.974 15.0849 15.0077 14.6498L15.7594 12.9778H15.7603ZM15.1296 2.6286C16.0532 3.00929 16.8429 3.65576 17.3984 4.48598C17.954 5.3162 18.2504 6.29274 18.25 7.29169C18.2504 8.54966 17.7804 9.76231 16.9323 10.6914C16.0843 11.6206 14.9194 12.199 13.6666 12.3132V10.4679C14.3458 10.3707 14.976 10.0582 15.4645 9.57644C15.9531 9.09468 16.2743 8.46898 16.381 7.79121C16.4878 7.11344 16.3745 6.41929 16.0577 5.81068C15.7409 5.20206 15.2373 4.71104 14.6209 4.40969L15.1296 2.6286Z" fill="white"/>
</svg>
