<svg width="22" height="23" viewBox="0 0 22 23" fill="none" xmlns="http://www.w3.org/2000/svg">
<path d="M5.00025 14.2497L0.916504 17.458V3.24967C0.916504 3.00656 1.01308 2.7734 1.18499 2.60149C1.3569 2.42958 1.59006 2.33301 1.83317 2.33301H15.5832C15.8263 2.33301 16.0594 2.42958 16.2314 2.60149C16.4033 2.7734 16.4998 3.00656 16.4998 3.24967V14.2497H5.00025ZM4.36592 12.4163H14.6665V4.16634H2.74984V13.6859L4.36592 12.4163ZM7.33317 16.083H16.7171L18.3332 17.3526V7.83301H19.2498C19.493 7.83301 19.7261 7.92958 19.898 8.10149C20.0699 8.2734 20.1665 8.50656 20.1665 8.74967V21.1247L16.0828 17.9163H8.24984C8.00672 17.9163 7.77356 17.8198 7.60166 17.6479C7.42975 17.4759 7.33317 17.2428 7.33317 16.9997V16.083Z" fill="white"/>
</svg>
