<svg width="18" height="19" viewBox="0 0 18 19" fill="none" xmlns="http://www.w3.org/2000/svg">
<path d="M4.46252 11.4442L2.51919 13.3894L5.11152 15.9817L15.4818 5.61057L12.8894 3.01916L10.9434 4.96249L12.2404 6.25866L10.9434 7.55666L9.64719 6.25957L8.35102 7.55666L9.64719 8.85282L8.35102 10.149L7.05486 8.85282L5.75777 10.149L7.05486 11.4452L5.75777 12.7422L4.46252 11.4433V11.4442ZM13.5375 1.07399L17.426 4.96249C17.5979 5.13439 17.6944 5.36751 17.6944 5.61057C17.6944 5.85364 17.5979 6.08676 17.426 6.25866L5.75869 17.926C5.58679 18.0978 5.35367 18.1944 5.11061 18.1944C4.86754 18.1944 4.63442 18.0978 4.46252 17.926L0.574023 14.0375C0.402175 13.8656 0.305635 13.6325 0.305635 13.3894C0.305635 13.1463 0.402175 12.9132 0.574023 12.7413L12.2414 1.07399C12.4133 0.902143 12.6464 0.805604 12.8894 0.805604C13.1325 0.805604 13.3656 0.902143 13.5375 1.07399ZM10.9434 15.3327L12.2404 14.0366L14.2956 16.0927H15.5918V14.7965L13.5366 12.7404L14.8328 11.4442L17.25 13.8606V17.75H13.3615L10.9443 15.3327H10.9434ZM3.16636 7.55482L0.573106 4.96249C0.487878 4.87736 0.420266 4.77626 0.374135 4.66498C0.328004 4.5537 0.30426 4.43441 0.30426 4.31395C0.30426 4.19349 0.328004 4.0742 0.374135 3.96292C0.420266 3.85164 0.487878 3.75054 0.573106 3.66541L3.16636 1.07307C3.33826 0.901227 3.57137 0.804688 3.81444 0.804688C4.05751 0.804688 4.29062 0.901227 4.46252 1.07307L7.05669 3.66541L5.75869 4.96249L3.81444 3.01732L2.51827 4.31441L4.46252 6.25774L3.16636 7.55482Z" fill="white"/>
</svg>
