<svg width="18" height="18" viewBox="0 0 18 18" fill="none" xmlns="http://www.w3.org/2000/svg">
<path d="M17.25 16.8333C17.25 17.0765 17.1534 17.3096 16.9815 17.4815C16.8096 17.6534 16.5764 17.75 16.3333 17.75H1.66667C1.42355 17.75 1.19039 17.6534 1.01849 17.4815C0.846577 17.3096 0.75 17.0765 0.75 16.8333V7.19917C0.749903 7.05948 0.781732 6.92162 0.843056 6.79611C0.90438 6.67061 0.993577 6.56077 1.10383 6.47501L8.43717 0.771505C8.59808 0.64633 8.79613 0.578369 9 0.578369C9.20387 0.578369 9.40192 0.64633 9.56283 0.771505L16.8962 6.47501C17.0064 6.56077 17.0956 6.67061 17.1569 6.79611C17.2183 6.92162 17.2501 7.05948 17.25 7.19917V16.8333ZM15.4167 15.9167V7.6465L9 2.65617L2.58333 7.6465V15.9167H15.4167Z" fill="white"/>
</svg>
