<svg width="20" height="19" viewBox="0 0 20 19" fill="none" xmlns="http://www.w3.org/2000/svg">
<path d="M9.99998 18.6666C4.93723 18.6666 0.833313 14.5627 0.833313 9.49998C0.833313 4.43723 4.93723 0.333313 9.99998 0.333313C15.0627 0.333313 19.1666 4.43723 19.1666 9.49998C19.1666 14.5627 15.0627 18.6666 9.99998 18.6666ZM9.99998 16.8333C11.9449 16.8333 13.8102 16.0607 15.1854 14.6854C16.5607 13.3102 17.3333 11.4449 17.3333 9.49998C17.3333 7.55506 16.5607 5.6898 15.1854 4.31453C13.8102 2.93926 11.9449 2.16665 9.99998 2.16665C8.05506 2.16665 6.1898 2.93926 4.81453 4.31453C3.43926 5.6898 2.66665 7.55506 2.66665 9.49998C2.66665 11.4449 3.43926 13.3102 4.81453 14.6854C6.1898 16.0607 8.05506 16.8333 9.99998 16.8333ZM9.08331 4.91665H10.9166V6.74998H9.08331V4.91665ZM9.08331 8.58331H10.9166V14.0833H9.08331V8.58331Z" fill="white"/>
</svg>
