<svg width="20" height="19" viewBox="0 0 20 19" fill="none" xmlns="http://www.w3.org/2000/svg">
<path d="M5.41665 4.08332V1.33332C5.41665 1.09021 5.51322 0.85705 5.68513 0.685142C5.85704 0.513234 6.0902 0.416656 6.33331 0.416656H13.6666C13.9098 0.416656 14.1429 0.513234 14.3148 0.685142C14.4867 0.85705 14.5833 1.09021 14.5833 1.33332V4.08332H18.25C18.4931 4.08332 18.7263 4.1799 18.8982 4.35181C19.0701 4.52372 19.1666 4.75687 19.1666 4.99999V17.8333C19.1666 18.0764 19.0701 18.3096 18.8982 18.4815C18.7263 18.6534 18.4931 18.75 18.25 18.75H1.74998C1.50686 18.75 1.27371 18.6534 1.1018 18.4815C0.92989 18.3096 0.833313 18.0764 0.833313 17.8333V4.99999C0.833313 4.75687 0.92989 4.52372 1.1018 4.35181C1.27371 4.1799 1.50686 4.08332 1.74998 4.08332H5.41665ZM7.24998 11.4167H2.66665V16.9167H17.3333V11.4167H12.75V14.1667H7.24998V11.4167ZM17.3333 5.91666H2.66665V9.58332H7.24998V7.74999H12.75V9.58332H17.3333V5.91666ZM9.08331 9.58332V12.3333H10.9166V9.58332H9.08331ZM7.24998 2.24999V4.08332H12.75V2.24999H7.24998Z" fill="white"/>
</svg>
