<svg width="20" height="17" viewBox="0 0 20 17" fill="none" xmlns="http://www.w3.org/2000/svg">
<path d="M1.74998 0.25H18.25C18.4931 0.25 18.7263 0.346577 18.8982 0.518485C19.0701 0.690394 19.1666 0.923552 19.1666 1.16667V15.8333C19.1666 16.0764 19.0701 16.3096 18.8982 16.4815C18.7263 16.6534 18.4931 16.75 18.25 16.75H1.74998C1.50686 16.75 1.27371 16.6534 1.1018 16.4815C0.92989 16.3096 0.833313 16.0764 0.833313 15.8333V1.16667C0.833313 0.923552 0.92989 0.690394 1.1018 0.518485C1.27371 0.346577 1.50686 0.25 1.74998 0.25ZM17.3333 7.58333H2.66665V14.9167H17.3333V7.58333ZM17.3333 5.75V2.08333H2.66665V5.75H17.3333ZM11.8333 11.25H15.5V13.0833H11.8333V11.25Z" fill="white"/>
</svg>
