<svg width="15" height="19" viewBox="0 0 15 19" fill="none" xmlns="http://www.w3.org/2000/svg">
<path d="M12.5 0.333313C12.7431 0.333313 12.9763 0.42989 13.1482 0.601798C13.3201 0.773707 13.4166 1.00686 13.4166 1.24998V8.58331H11.5833V2.16665H2.41665V16.8333H6.08331V18.6666H1.49998C1.25686 18.6666 1.02371 18.5701 0.851799 18.3982C0.67989 18.2263 0.583313 17.9931 0.583313 17.75V1.24998C0.583313 1.00686 0.67989 0.773707 0.851799 0.601798C1.02371 0.42989 1.25686 0.333313 1.49998 0.333313H12.5ZM9.74998 9.49998C10.3965 9.49989 11.0316 9.67076 11.5908 9.99528C12.1501 10.3198 12.6135 10.7864 12.9343 11.3478C13.255 11.9092 13.4216 12.5454 13.4171 13.192C13.4126 13.8385 13.2373 14.4724 12.9088 15.0293L14.9346 17.0551L13.6394 18.3522L11.6117 16.3264C11.126 16.6124 10.5809 16.7825 10.0187 16.8236C9.45651 16.8646 8.89243 16.7755 8.37028 16.5632C7.84814 16.3509 7.38197 16.021 7.00801 15.5993C6.63404 15.1775 6.36235 14.6752 6.21404 14.1314C6.06573 13.5876 6.04479 13.0169 6.15285 12.4637C6.26092 11.9105 6.49507 11.3896 6.83712 10.9416C7.17917 10.4936 7.61991 10.1305 8.1251 9.88043C8.63028 9.6304 9.18631 9.50021 9.74998 9.49998ZM9.74998 11.3333C9.26375 11.3333 8.79743 11.5265 8.45362 11.8703C8.1098 12.2141 7.91665 12.6804 7.91665 13.1666C7.91665 13.6529 8.1098 14.1192 8.45362 14.463C8.79743 14.8068 9.26375 15 9.74998 15C10.2362 15 10.7025 14.8068 11.0463 14.463C11.3902 14.1192 11.5833 13.6529 11.5833 13.1666C11.5833 12.6804 11.3902 12.2141 11.0463 11.8703C10.7025 11.5265 10.2362 11.3333 9.74998 11.3333Z" fill="white"/>
</svg>
