<svg width="176" height="157" viewBox="0 0 176 157" fill="none" xmlns="http://www.w3.org/2000/svg">
<path d="M38.7646 156.625H140.233C143.022 156.632 145.71 155.578 147.759 153.675C156.307 145.713 163.145 136.076 167.854 125.357C172.562 114.638 175.04 103.063 175.137 91.3444C175.575 43.6947 137.073 4.4877 89.7066 4.37525C42.3137 4.26273 3.85943 42.8795 3.85943 90.5319C3.8459 102.392 6.27339 114.127 10.9891 124.997C15.7047 135.867 22.6064 145.637 31.2596 153.692C33.3043 155.587 35.9849 156.634 38.7646 156.625Z" fill="url(#paint0_linear_161_3217)"/>
<path d="M74.7924 135.737C75.1159 131.955 73.1437 128.699 70.3873 128.463C67.6309 128.227 65.1342 131.101 64.8106 134.883C64.4871 138.664 66.4593 141.92 69.2157 142.156C71.9721 142.392 74.4689 139.518 74.7924 135.737Z" fill="url(#paint1_linear_161_3217)"/>
<path d="M71.67 140.42C72.3665 137.743 69.9536 134.798 66.2808 133.843C62.608 132.888 59.066 134.284 58.3696 136.961C57.6732 139.638 60.086 142.583 63.7589 143.539C67.4317 144.494 70.9736 143.098 71.67 140.42Z" fill="url(#paint2_linear_161_3217)"/>
<path d="M70.9712 142.035C73.4712 140.267 73.5319 136.054 71.1069 132.625C68.6819 129.195 64.6894 127.848 62.1894 129.616C59.6895 131.384 59.6287 135.597 62.0537 139.026C64.4788 142.456 68.4713 143.803 70.9712 142.035Z" fill="url(#paint3_linear_161_3217)"/>
<path d="M116.44 14.2388C117.787 14.2388 119.12 14.504 120.364 15.0193C121.608 15.5346 122.738 16.29 123.691 17.2421C124.643 18.1943 125.398 19.3247 125.913 20.5688C126.429 21.8129 126.694 23.1463 126.694 24.4929C126.694 24.4998 126.694 24.5064 126.694 24.5133L134.376 22.9851V34.747H116.44C113.721 34.7454 111.115 33.6643 109.193 31.7414C107.272 29.8186 106.192 27.2114 106.192 24.4929C106.192 21.7744 107.272 19.1672 109.193 17.2444C111.115 15.3215 113.721 14.2405 116.44 14.2388Z" fill="url(#paint4_linear_161_3217)"/>
<path d="M134.376 0.289978C138.279 0.290354 142.066 1.61516 145.117 4.04765C148.169 6.48014 150.305 9.8763 151.175 13.6805C152.63 13.3976 154.128 13.4221 155.573 13.7523C157.017 14.0824 158.377 14.711 159.565 15.5977C160.752 16.4844 161.741 17.6096 162.468 18.9011C163.195 20.1925 163.644 21.6217 163.786 23.0969C163.928 24.5721 163.76 26.0607 163.293 27.4672C162.826 28.8737 162.07 30.1669 161.073 31.264C160.077 32.361 158.862 33.2376 157.507 33.8374C156.152 34.4372 154.686 34.7471 153.204 34.7471H134.376C129.807 34.7471 125.425 32.9319 122.194 29.7009C118.963 26.47 117.148 22.0878 117.148 17.5185C117.148 12.9492 118.963 8.56708 122.194 5.3361C125.425 2.10512 129.807 0.289978 134.376 0.289978Z" fill="url(#paint5_linear_161_3217)"/>
<path d="M119.915 107.597H102.258C99.9975 107.597 97.8293 106.699 96.2306 105.101C94.632 103.502 93.7339 101.334 93.7339 99.0728C93.7339 96.812 94.632 94.6438 96.2306 93.0452C97.8293 91.4465 99.9975 90.5484 102.258 90.5484H119.915C122.657 90.5453 125.286 89.4547 127.225 87.5159C129.163 85.577 130.254 82.9483 130.257 80.2063V66.5958C130.257 64.3349 131.155 62.1667 132.754 60.5681C134.353 58.9695 136.521 58.0714 138.782 58.0714C141.043 58.0714 143.211 58.9695 144.809 60.5681C146.408 62.1667 147.306 64.3349 147.306 66.5958V80.2063C147.298 87.4684 144.409 94.4306 139.274 99.5656C134.139 104.701 127.177 107.589 119.915 107.597Z" fill="#D4D9E3"/>
<path d="M91.4641 5.43384H91.4642C96.8456 5.43384 102.007 7.57161 105.812 11.3769C109.617 15.1821 111.755 20.3432 111.755 25.7246V150.716H71.1733V25.7246C71.1733 20.3432 73.3111 15.1821 77.1164 11.3769C80.9216 7.57161 86.0827 5.43384 91.4641 5.43384Z" fill="#E5E9F1"/>
<path d="M47.6257 74.4824C46.2791 74.4824 44.9457 74.7477 43.7016 75.263C42.4575 75.7783 41.3271 76.5336 40.3749 77.4858C39.4227 78.438 38.6674 79.5684 38.1521 80.8125C37.6368 82.0566 37.3715 83.39 37.3715 84.7366C37.3715 84.7434 37.372 84.7501 37.372 84.7569L29.6892 83.2287V94.9907H47.6257C50.3452 94.9907 52.9534 93.9104 54.8764 91.9873C56.7995 90.0643 57.8798 87.4561 57.8798 84.7366C57.8798 82.017 56.7995 79.4088 54.8764 77.4858C52.9534 75.5628 50.3452 74.4824 47.6257 74.4824Z" fill="url(#paint6_linear_161_3217)"/>
<path d="M29.689 60.5337C25.7865 60.5341 21.9997 61.8589 18.948 64.2914C15.8964 66.7239 13.7606 70.12 12.8902 73.9242C11.4354 73.6413 9.93755 73.6658 8.49277 73.996C7.048 74.3261 5.68821 74.9548 4.50071 75.8414C3.3132 76.7281 2.3242 77.8533 1.5972 79.1448C0.870203 80.4363 0.421259 81.8654 0.279187 83.3406C0.137115 84.8158 0.305054 86.3045 0.772225 87.7109C1.2394 89.1174 1.99548 90.4106 2.99194 91.5077C3.9884 92.6047 5.20322 93.4813 6.55844 94.0811C7.91365 94.6809 9.3793 94.9908 10.8613 94.9908H29.689C34.2569 94.9886 38.6369 93.1725 41.8661 89.9417C45.0953 86.711 46.9093 82.3301 46.9093 77.7622C46.9093 73.1944 45.0953 68.8135 41.8661 65.5827C38.6369 62.352 34.2569 60.5359 29.689 60.5337Z" fill="url(#paint7_linear_161_3217)"/>
<path d="M85.5234 83.7242L71.1738 105.733V81.8096L85.5234 83.7242Z" fill="#D4D9E3"/>
<path d="M80.876 85.104H63.2193C55.9572 85.0958 48.9949 82.2073 43.8598 77.0722C38.7248 71.9372 35.8363 64.9749 35.8281 57.7128V44.1025C35.8281 41.8417 36.7262 39.6734 38.3249 38.0748C39.9235 36.4762 42.0917 35.5781 44.3525 35.5781C46.6134 35.5781 48.7816 36.4762 50.3802 38.0748C51.9789 39.6734 52.877 41.8417 52.877 44.1025V57.7129C52.88 60.4549 53.9707 63.0837 55.9096 65.0226C57.8484 66.9614 60.4773 68.0521 63.2193 68.0552H80.876C83.1368 68.0552 85.305 68.9533 86.9036 70.5519C88.5023 72.1505 89.4004 74.3188 89.4004 76.5796C89.4004 78.8404 88.5023 81.0086 86.9036 82.6072C85.305 84.2059 83.1368 85.104 80.876 85.104L80.876 85.104Z" fill="#E5E9F1"/>
<path opacity="0.3" d="M75.8199 17.3402L75.8199 17.3402C75.0963 17.9507 75.0047 19.0321 75.6151 19.7557L78.0181 22.6037C78.6286 23.3272 79.71 23.4189 80.4335 22.8084L80.4335 22.8084C81.1571 22.1979 81.2488 21.1165 80.6383 20.393L78.2353 17.5449C77.6248 16.8214 76.5434 16.7297 75.8199 17.3402Z" fill="white"/>
<path opacity="0.3" d="M138.028 68.8149C137.417 68.0913 136.336 67.9997 135.612 68.6102C134.889 69.2206 134.797 70.3021 135.408 71.0256L137.811 73.8737C138.421 74.5972 139.502 74.6889 140.226 74.0784C140.95 73.4679 141.041 72.3865 140.431 71.6629L138.028 68.8149Z" fill="white"/>
<path opacity="0.3" d="M103.027 99.1797L103.027 99.1797C102.304 99.7902 102.212 100.872 102.822 101.595L105.225 104.443C105.836 105.167 106.917 105.258 107.641 104.648L107.641 104.648C108.364 104.037 108.456 102.956 107.846 102.233L105.443 99.3845C104.832 98.6609 103.751 98.5693 103.027 99.1797Z" fill="white"/>
<path opacity="0.3" d="M110.977 64.9076L110.977 64.9076C110.692 64.0048 109.73 63.504 108.827 63.7889L105.273 64.9106C104.371 65.1956 103.87 66.1584 104.155 67.0612L104.155 67.0612C104.44 67.964 105.403 68.4648 106.305 68.1798L109.859 67.0582C110.762 66.7732 111.262 65.8103 110.977 64.9076Z" fill="white"/>
<path opacity="0.3" d="M51.4862 59.2641L51.4862 59.2641C51.2012 58.3614 50.2384 57.8605 49.3356 58.1455L45.7821 59.2672C44.8793 59.5522 44.3785 60.515 44.6635 61.4178L44.6635 61.4178C44.9485 62.3205 45.9113 62.8214 46.8141 62.5364L50.3676 61.4147C51.2703 61.1297 51.7712 60.1669 51.4862 59.2641Z" fill="white"/>
<path opacity="0.3" d="M90.9342 122.563L90.9342 122.563C91.825 122.242 92.2874 121.26 91.9669 120.37L90.7056 116.863C90.3852 115.972 89.4033 115.51 88.5125 115.83L88.5125 115.83C87.6217 116.151 87.1593 117.133 87.4798 118.024L88.7411 121.53C89.0615 122.421 90.0434 122.883 90.9342 122.563Z" fill="white"/>
<path opacity="0.3" d="M84.1544 59.6497C85.0988 59.5828 85.8101 58.7632 85.7433 57.8188C85.6765 56.8745 84.8568 56.1632 83.9125 56.23L80.1954 56.493C79.2511 56.5598 78.5398 57.3795 78.6066 58.3238C78.6734 59.2681 79.4931 59.9795 80.4374 59.9127L84.1544 59.6497Z" fill="white"/>
<path opacity="0.3" d="M139.899 91.5226C140.843 91.4558 141.554 90.6361 141.488 89.6918C141.421 88.7475 140.601 88.0362 139.657 88.103L135.94 88.366C134.996 88.4328 134.284 89.2525 134.351 90.1968C134.418 91.1411 135.237 91.8525 136.182 91.7856L139.899 91.5226Z" fill="white"/>
<path opacity="0.3" d="M44.1608 50.3574L44.1609 50.3574C44.8844 49.7469 44.9761 48.6655 44.3656 47.9419L41.9626 45.0939C41.3522 44.3703 40.2707 44.2787 39.5472 44.8891L39.5472 44.8891C38.8236 45.4996 38.732 46.5811 39.3424 47.3046L41.7454 50.1526C42.3559 50.8762 43.4373 50.9679 44.1608 50.3574Z" fill="white"/>
<path opacity="0.3" d="M100.782 86.8142L100.782 86.8142C101.005 85.8941 100.44 84.9676 99.5196 84.7449L95.8978 83.8681C94.9778 83.6453 94.0513 84.2106 93.8285 85.1307L93.8285 85.1307C93.6058 86.0508 94.1711 86.9773 95.0912 87.2001L98.7129 88.0768C99.633 88.2996 100.559 87.7343 100.782 86.8142Z" fill="white"/>
<path opacity="0.3" d="M69.5805 82.567C70.5248 82.5001 71.2361 81.6805 71.1693 80.7361C71.1025 79.7918 70.2828 79.0805 69.3385 79.1473L65.6215 79.4103C64.6772 79.4771 63.9658 80.2968 64.0326 81.2411C64.0994 82.1854 64.9191 82.8968 65.8634 82.8299L69.5805 82.567Z" fill="white"/>
<path opacity="0.3" d="M93.153 37.9503C92.6048 38.7221 92.7862 39.7922 93.558 40.3403C94.3299 40.8885 95.3999 40.7071 95.9481 39.9353L98.1056 36.8971C98.6538 36.1253 98.4724 35.0552 97.7006 34.5071C96.9287 33.959 95.8587 34.1403 95.3105 34.9122L93.153 37.9503Z" fill="white"/>
<path opacity="0.3" d="M49.4262 77.3991L49.4262 77.3991C50.198 77.9472 51.2681 77.7659 51.8162 76.9941L53.9738 73.9559C54.5219 73.1841 54.3406 72.114 53.5687 71.5659L53.5687 71.5659C52.7969 71.0177 51.7268 71.1991 51.1787 71.9709L49.0211 75.0091C48.473 75.7809 48.6543 76.851 49.4262 77.3991Z" fill="white"/>
<path opacity="0.3" d="M118.044 103.069C117.495 103.84 117.677 104.91 118.449 105.459C119.22 106.007 120.291 105.825 120.839 105.054L122.996 102.015C123.544 101.244 123.363 100.173 122.591 99.6254C121.819 99.0772 120.749 99.2586 120.201 100.03L118.044 103.069Z" fill="white"/>
<path opacity="0.3" d="M76.0553 99.9215L76.0553 99.9215C76.8272 100.47 77.8972 100.288 78.4454 99.5164L80.603 96.4783C81.1511 95.7064 80.9697 94.6364 80.1979 94.0882L80.1979 94.0882C79.4261 93.5401 78.356 93.7214 77.8079 94.4933L75.6503 97.5314C75.1021 98.3033 75.2835 99.3733 76.0553 99.9215Z" fill="white"/>
<path d="M120.896 128.268C123.107 126.44 123.819 123.651 122.487 122.039C121.154 120.427 118.281 120.602 116.07 122.43C113.858 124.258 113.146 127.047 114.479 128.659C115.811 130.271 118.684 130.096 120.896 128.268Z" fill="url(#paint8_linear_161_3217)"/>
<path d="M116.715 129.064C118.529 128.022 118.839 125.16 117.41 122.673C115.98 120.185 113.35 119.014 111.537 120.056C109.724 121.098 109.413 123.96 110.843 126.447C112.273 128.935 114.902 130.107 116.715 129.064Z" fill="url(#paint9_linear_161_3217)"/>
<path d="M120.623 124.631C121.188 121.506 119.8 118.639 117.523 118.226C115.245 117.814 112.939 120.013 112.374 123.137C111.808 126.262 113.196 129.13 115.474 129.542C117.751 129.955 120.057 127.756 120.623 124.631Z" fill="url(#paint10_linear_161_3217)"/>
<path d="M167.283 156.254C167.788 156.255 168.283 156.116 168.714 155.853C169.145 155.589 169.494 155.212 169.723 154.762C169.952 154.312 170.051 153.807 170.011 153.304C169.97 152.8 169.791 152.318 169.493 151.911C157.891 136.329 138.406 126.103 116.322 126.103C94.2381 126.103 74.7533 136.329 63.1513 151.911C62.8531 152.318 62.6737 152.8 62.6331 153.304C62.5925 153.807 62.6922 154.312 62.9212 154.762C63.1501 155.212 63.4994 155.589 63.9301 155.853C64.3609 156.116 64.8562 156.255 65.3611 156.254H167.283Z" fill="#D4D9E3"/>
<path d="M94.1642 152.21C95.909 150.768 96.471 148.567 95.4195 147.296C94.368 146.024 92.1011 146.162 90.3563 147.604C88.6115 149.047 88.0495 151.247 89.101 152.519C90.1525 153.791 92.4194 153.653 94.1642 152.21Z" fill="url(#paint11_linear_161_3217)"/>
<path d="M90.8655 152.839C92.2963 152.016 92.5415 149.759 91.4133 147.796C90.2851 145.833 88.2106 144.909 86.7798 145.731C85.3491 146.554 85.1038 148.811 86.2321 150.774C87.3603 152.737 89.4348 153.661 90.8655 152.839Z" fill="url(#paint12_linear_161_3217)"/>
<path d="M93.9484 149.341C94.3949 146.875 93.2998 144.613 91.5025 144.288C89.7053 143.962 87.8864 145.697 87.4399 148.162C86.9935 150.628 88.0886 152.89 89.8858 153.216C91.6831 153.541 93.502 151.806 93.9484 149.341Z" fill="url(#paint13_linear_161_3217)"/>
<path d="M94.0251 156.254C85.3692 145.34 68.9317 137.971 50.0749 137.971C33.5384 137.971 18.8624 143.638 9.66346 152.393C9.34154 152.704 9.11997 153.105 9.02723 153.543C8.93448 153.981 8.97478 154.437 9.14296 154.851C9.31113 155.266 9.59951 155.622 9.97104 155.872C10.3426 156.121 10.7803 156.254 11.2281 156.254L94.0251 156.254Z" fill="#E5E9F1"/>
<defs>
<linearGradient id="paint0_linear_161_3217" x1="89.5" y1="4.375" x2="89.5" y2="156.625" gradientUnits="userSpaceOnUse">
<stop stop-color="#FBFDFE"/>
<stop offset="1" stop-color="#F0F5FA"/>
</linearGradient>
<linearGradient id="paint1_linear_161_3217" x1="64.2249" y1="141.729" x2="66.5192" y2="127.465" gradientUnits="userSpaceOnUse">
<stop stop-color="#194BFB"/>
<stop offset="1" stop-color="#00E675"/>
</linearGradient>
<linearGradient id="paint2_linear_161_3217" x1="57.1086" y1="141.809" x2="60.1657" y2="131.709" gradientUnits="userSpaceOnUse">
<stop stop-color="#194BFB"/>
<stop offset="1" stop-color="#00E675"/>
</linearGradient>
<linearGradient id="paint3_linear_161_3217" x1="57.6628" y1="132.817" x2="67.4572" y2="126.455" gradientUnits="userSpaceOnUse">
<stop stop-color="#194BFB"/>
<stop offset="1" stop-color="#00E675"/>
</linearGradient>
<linearGradient id="paint4_linear_161_3217" x1="106.192" y1="14.2388" x2="135.739" y2="16.437" gradientUnits="userSpaceOnUse">
<stop stop-color="#194BFB"/>
<stop offset="1" stop-color="#00E675"/>
</linearGradient>
<linearGradient id="paint5_linear_161_3217" x1="117.148" y1="0.289978" x2="166.099" y2="3.88068" gradientUnits="userSpaceOnUse">
<stop stop-color="#194BFB"/>
<stop offset="1" stop-color="#00E675"/>
</linearGradient>
<linearGradient id="paint6_linear_161_3217" x1="29.6892" y1="74.4824" x2="59.2423" y2="76.6817" gradientUnits="userSpaceOnUse">
<stop stop-color="#194BFB"/>
<stop offset="1" stop-color="#00E675"/>
</linearGradient>
<linearGradient id="paint7_linear_161_3217" x1="0.230225" y1="60.5337" x2="49.1731" y2="64.1231" gradientUnits="userSpaceOnUse">
<stop stop-color="#194BFB"/>
<stop offset="1" stop-color="#00E675"/>
</linearGradient>
<linearGradient id="paint8_linear_161_3217" x1="112.065" y1="125.74" x2="120.976" y2="119.423" gradientUnits="userSpaceOnUse">
<stop stop-color="#194BFB"/>
<stop offset="1" stop-color="#00E675"/>
</linearGradient>
<linearGradient id="paint9_linear_161_3217" x1="108.254" y1="121.943" x2="115.322" y2="118.243" gradientUnits="userSpaceOnUse">
<stop stop-color="#194BFB"/>
<stop offset="1" stop-color="#00E675"/>
</linearGradient>
<linearGradient id="paint10_linear_161_3217" x1="111.349" y1="128.795" x2="114.378" y2="117.092" gradientUnits="userSpaceOnUse">
<stop stop-color="#194BFB"/>
<stop offset="1" stop-color="#00E675"/>
</linearGradient>
<linearGradient id="paint11_linear_161_3217" x1="87.197" y1="150.216" x2="94.2278" y2="145.232" gradientUnits="userSpaceOnUse">
<stop stop-color="#194BFB"/>
<stop offset="1" stop-color="#00E675"/>
</linearGradient>
<linearGradient id="paint12_linear_161_3217" x1="84.1892" y1="147.22" x2="89.7661" y2="144.301" gradientUnits="userSpaceOnUse">
<stop stop-color="#194BFB"/>
<stop offset="1" stop-color="#00E675"/>
</linearGradient>
<linearGradient id="paint13_linear_161_3217" x1="86.6316" y1="152.627" x2="89.0216" y2="143.392" gradientUnits="userSpaceOnUse">
<stop stop-color="#194BFB"/>
<stop offset="1" stop-color="#00E675"/>
</linearGradient>
</defs>
</svg>
