<svg width="30" height="34" viewBox="0 0 30 34" fill="none" xmlns="http://www.w3.org/2000/svg">
<path d="M30 10.3333V31.9883C30.0015 32.2072 29.96 32.4242 29.8776 32.627C29.7953 32.8298 29.6738 33.0144 29.5201 33.1703C29.3664 33.3261 29.1836 33.4502 28.9819 33.5353C28.7803 33.6205 28.5639 33.6651 28.345 33.6667H1.655C1.21636 33.6667 0.795652 33.4925 0.485327 33.1825C0.175002 32.8725 0.000441737 32.452 0 32.0133V1.98667C0 1.09167 0.748333 0.333332 1.67 0.333332H19.995L30 10.3333ZM26.6667 12H18.3333V3.66667H3.33333V30.3333H26.6667V12ZM8.33333 8.66667H13.3333V12H8.33333V8.66667ZM8.33333 15.3333H21.6667V18.6667H8.33333V15.3333ZM8.33333 22H21.6667V25.3333H8.33333V22Z" fill="#718096"/>
</svg>
