<svg width="202" height="34" viewBox="0 0 202 34" fill="none" xmlns="http://www.w3.org/2000/svg">
<path fill-rule="evenodd" clip-rule="evenodd" d="M38.4568 33.9514L19.2284 0L14.2477 8.8007L23.5349 25.1918H4.96054L0 33.9514H38.4568Z" fill="url(#paint0_linear_216_4832)"/>
<path d="M27.9317 8.63658L22.9712 0H50.6315C50.9334 0 51.2453 0.0410289 51.5371 0.133344C73.281 6.93389 65.2616 31.623 51.0843 33.9309H41.9883L37.0277 25.2943H49.4341C49.575 25.2943 49.7058 25.2738 49.8366 25.243C57.7956 22.9762 59.5866 12.0728 49.8769 8.7289C49.7159 8.67761 49.5549 8.64684 49.3838 8.64684H27.9317V8.63658Z" fill="url(#paint1_linear_216_4832)"/>
<path d="M71.6818 33.2392C71.7827 33.0335 71.924 32.8278 72.0047 32.622C76.0412 22.088 80.0575 11.5541 84.0537 1.02009C84.2959 0.402861 84.5784 0.19712 85.2243 0.217694C86.6169 0.258843 88.0094 0.238269 89.402 0.217694C89.846 0.217694 90.1084 0.341137 90.2699 0.793769C94.488 11.3895 98.7062 21.9852 102.944 32.5809C103.025 32.8072 103.106 33.0129 103.227 33.3421C102.924 33.3421 102.722 33.3421 102.5 33.3421C100.664 33.3421 98.8071 33.3215 96.9705 33.3627C96.4659 33.3627 96.2641 33.1981 96.0824 32.7249C95.3357 30.6469 94.5284 28.5689 93.7816 26.4703C93.6202 26.0383 93.4184 25.8943 92.9743 25.9148C90.2497 25.9354 87.5452 25.9148 84.8206 25.9148C84.5784 25.9148 84.3564 25.9148 84.0335 25.9148C84.094 25.6474 84.1344 25.4416 84.2151 25.2359C84.6591 23.8986 85.1233 22.5613 85.5068 21.2239C85.6683 20.6684 85.9306 20.5244 86.4756 20.545C87.9287 20.5861 89.3819 20.5656 90.835 20.5656C91.057 20.5656 91.2588 20.5656 91.5616 20.5656C91.4808 20.2569 91.4405 20.0306 91.3597 19.8043C90.1084 16.3478 88.8369 12.912 87.5654 9.4555C87.4847 9.24976 87.3031 9.10574 87.1618 8.92057C87.0003 9.10574 86.7985 9.24976 86.7178 9.47607C83.9931 17.1091 81.2483 24.7421 78.564 32.3957C78.3218 33.0952 78.0393 33.3833 77.2522 33.3627C75.3954 33.301 73.5184 33.3627 71.6616 33.3627C71.6818 33.3421 71.6818 33.2804 71.6818 33.2392Z" fill="white"/>
<path d="M125.831 22.9318C127.628 22.7466 129.424 22.5615 131.24 22.3763C131.341 22.8289 131.402 23.2404 131.523 23.6313C132.29 26.4706 134.631 28.3222 137.739 28.4663C139.798 28.5691 141.715 28.1165 143.33 26.7586C144.46 25.7916 145.086 24.5777 144.702 23.0141C144.46 22.0265 143.794 21.3476 142.926 21.039C141.392 20.4629 139.818 19.9691 138.224 19.5782C135.297 18.8581 132.431 18.0351 129.929 16.2452C129.343 15.8337 128.798 15.3399 128.314 14.8256C126.376 12.7476 126.397 10.2787 127.083 7.74806C128.031 4.33275 130.453 2.23418 133.602 1.04088C138.324 -0.769647 142.765 -0.296442 146.72 3.07772C148.496 4.57964 149.405 6.59591 149.849 9.08538C148.093 9.08538 146.438 9.10596 144.763 9.06481C144.561 9.06481 144.298 8.79734 144.157 8.5916C143.067 6.82222 141.655 5.46433 139.556 5.07342C136.912 4.57964 134.651 5.4026 132.916 7.48059C131.826 8.77677 131.967 10.0524 133.38 10.9576C134.55 11.6777 135.842 12.2744 137.154 12.7064C139.051 13.3442 140.989 13.7969 142.906 14.3112C145.55 15.0313 147.81 16.3275 149.324 18.7347C151.443 22.1294 151.362 27.9313 147.124 31.1409C142.785 34.4328 135.58 34.9883 130.897 32.2519C127.547 30.2974 125.912 27.273 125.811 23.3844C125.811 23.261 125.831 23.1375 125.831 22.9318Z" fill="white"/>
<path d="M123.894 33.3011C121.815 33.3011 119.817 33.3011 117.718 33.3011C117.718 32.7455 117.718 32.2312 117.718 31.614C114.691 33.4862 111.562 33.836 108.313 32.7867C106.133 32.0872 104.418 30.7087 103.106 28.7953C100.442 24.9274 100.482 19.6398 103.267 15.9982C104.983 13.7556 107.243 12.3977 110.008 12.0068C112.672 11.6364 115.296 11.8422 117.738 13.4264C117.758 13.0561 117.778 12.768 117.799 12.5006C117.799 8.69433 117.799 4.90868 117.799 1.10246C117.799 0.217771 117.799 0.217773 118.666 0.217773C120.18 0.217773 121.714 0.238348 123.228 0.217773C123.752 0.217773 123.954 0.341217 123.954 0.917294C123.934 11.513 123.934 22.1087 123.934 32.7044C123.934 32.8896 123.914 33.0542 123.894 33.3011ZM117.597 22.7465C117.597 19.4135 114.872 16.5537 111.704 16.5948C108.616 16.6154 106.174 19.2695 106.174 22.5819C106.174 25.8738 108.717 28.569 111.865 28.5896C115.094 28.5896 117.597 26.0384 117.597 22.7465Z" fill="white"/>
<path d="M159.597 25.0512C158.85 25.4627 158.366 25.9359 158.406 26.9441C158.487 29.0426 158.426 31.1412 158.426 33.2809C156.327 33.2809 154.289 33.2809 152.149 33.2809C152.149 33.0752 152.129 32.8283 152.129 32.602C152.129 22.068 152.129 11.534 152.109 1.00004C152.109 0.341661 152.291 0.177069 152.916 0.197643C154.47 0.238792 156.045 0.238792 157.599 0.197643C158.224 0.177069 158.446 0.321089 158.446 1.02061C158.406 6.22588 158.426 11.4311 158.426 16.657C158.426 16.9039 158.426 17.1713 158.426 17.5828C158.709 17.3771 158.89 17.2536 159.052 17.1302C161.131 15.3608 163.21 13.5914 165.308 11.8221C165.53 11.6369 165.833 11.4929 166.116 11.4929C168.962 11.4723 171.807 11.4723 174.653 11.4723C174.774 11.4723 174.895 11.5134 175.158 11.534C171.404 14.8053 167.751 17.9737 164.037 21.2039C167.226 25.2158 170.415 29.2072 173.664 33.3015C173.139 33.3015 172.736 33.3015 172.332 33.3015C170.596 33.3015 168.861 33.2809 167.125 33.3221C166.661 33.3221 166.378 33.1986 166.075 32.8283C164.037 30.3388 161.978 27.8493 159.92 25.3804C159.819 25.2981 159.718 25.1747 159.597 25.0512Z" fill="white"/>
<path d="M201.94 33.3421C199.962 33.3421 198.045 33.3421 196.148 33.3215C196.006 33.3215 195.825 33.0952 195.764 32.9512C195.704 32.7866 195.744 32.5603 195.744 32.3546C195.764 21.9029 195.784 11.4306 195.784 0.978939C195.784 0.402862 195.926 0.197124 196.511 0.217698C198.125 0.258847 199.72 0.238272 201.334 0.217698C201.819 0.217698 202 0.341141 202 0.896643C201.98 11.5129 201.98 22.1292 201.98 32.7455C201.98 32.9101 201.96 33.0952 201.94 33.3421Z" fill="white"/>
<path d="M192.03 33.3423C190.052 33.3423 188.115 33.3423 186.197 33.3217C186.076 33.3217 185.895 33.116 185.854 32.9719C185.794 32.7868 185.834 32.581 185.834 32.3753C185.834 27.4169 185.834 22.438 185.834 17.4796C185.834 15.7102 185.874 13.9408 185.874 12.192C185.874 11.6982 185.975 11.4719 186.52 11.4925C188.175 11.5131 189.83 11.5131 191.465 11.4925C191.869 11.4925 192.091 11.5542 192.091 12.0686C192.07 19.0432 192.07 26.0179 192.07 32.9925C192.07 33.0748 192.05 33.1571 192.03 33.3423Z" fill="white"/>
<path d="M182.141 18.5699C182.141 23.5283 182.141 28.3838 182.141 33.3421C181.212 33.3421 180.304 33.3421 179.396 33.3421C178.447 33.3421 177.478 33.3216 176.53 33.3421C176.086 33.3627 175.904 33.2393 175.904 32.7455C175.924 28.1986 175.904 23.6723 175.904 19.1254C175.904 18.8374 175.884 18.5493 176.328 18.5493C178.245 18.5699 180.163 18.5699 182.141 18.5699Z" fill="white"/>
<defs>
<linearGradient id="paint0_linear_216_4832" x1="0" y1="0" x2="40.3869" y2="2.47656" gradientUnits="userSpaceOnUse">
<stop stop-color="#194BFB"/>
<stop offset="1" stop-color="#00E675"/>
</linearGradient>
<linearGradient id="paint1_linear_216_4832" x1="22.9712" y1="0" x2="67.0394" y2="2.95255" gradientUnits="userSpaceOnUse">
<stop stop-color="#194BFB"/>
<stop offset="1" stop-color="#00E675"/>
</linearGradient>
</defs>
</svg>
