<svg width="40" height="40" viewBox="0 0 40 40" fill="none" xmlns="http://www.w3.org/2000/svg">
<rect width="40" height="40" rx="20" fill="#F7FAFC"/>
<g clip-path="url(#clip0_302_7717)">
<path d="M15.7297 18.2441L20.0025 13.9731L24.277 18.2476L26.7618 15.7611L20.0025 9L13.2432 15.7593L15.7297 18.2441Z" fill="#F3BA2F"/>
<path d="M9 20.0009L11.4848 17.5143L13.9713 20.0009L11.4848 22.4857L9 20.0009Z" fill="#F3BA2F"/>
<path d="M15.7297 21.7559L20.0025 26.0287L24.277 21.7542L26.7636 24.2372L20.0042 30.9983L13.2432 24.2424L15.7297 21.7559Z" fill="#F3BA2F"/>
<path d="M26.0283 20.0009L28.5131 17.5143L30.9996 19.9991L28.5131 22.4874L26.0283 20.0009Z" fill="#F3BA2F"/>
<path d="M22.524 19.9992L20.0027 17.4761L18.1383 19.3406L17.9228 19.5543L17.4814 19.9957L20.0027 22.5152L22.524 20.0009V19.9992Z" fill="#F3BA2F"/>
</g>
<defs>
<clipPath id="clip0_302_7717">
<rect width="22" height="22" fill="white" transform="translate(9 9)"/>
</clipPath>
</defs>
</svg>
