<svg width="40" height="40" viewBox="0 0 40 40" fill="none" xmlns="http://www.w3.org/2000/svg">
<rect width="40" height="40" rx="20" fill="#F7FAFC"/>
<g clip-path="url(#clip0_302_7232)">
<path d="M13.1585 15.8712C13.1927 16.6592 13.8641 19.6661 13.8641 19.6661C14.1108 20.2751 14.3232 19.6661 14.3232 19.6661C15.1353 17.1958 13.4756 15.7643 13.4756 15.7643C13.0519 15.5131 13.1585 15.8712 13.1585 15.8712ZM22.7954 15.4419C22.7954 15.4419 23.608 16.0146 22.7954 16.122C22.7954 16.122 19.7593 16.4798 17.5001 18.6285C17.5001 18.6285 14.1108 21.6348 12.8402 24.9288C12.8402 24.9288 12.4165 24.9288 12.5583 24.2846C12.6994 23.6403 13.5462 20.8117 17.3231 17.3396C17.3231 17.3396 20.9603 13.9741 22.7954 15.4419Z" fill="#FF4600"/>
<path d="M7.34983 20.208C7.48395 20.2367 7.60439 20.2507 7.78121 20.2507C8.4737 20.2507 8.94029 19.799 8.94029 19.2253C8.94029 18.7092 8.5799 18.523 8.11368 18.523C7.90821 18.523 7.75274 18.5375 7.65384 18.5658L7.34983 20.208ZM6.96097 17.9708C7.25093 17.8988 7.68231 17.8561 8.10638 17.8561C8.55199 17.8561 9.01858 17.949 9.32952 18.2003C9.60524 18.4153 9.76783 18.7303 9.76783 19.1611C9.76783 19.7344 9.49903 20.201 9.15963 20.4732C8.77808 20.7815 8.23319 20.9321 7.6677 20.9321C7.49781 20.9321 7.34983 20.9103 7.22246 20.8962L6.87594 22.7248H6.07031L6.96097 17.9708Z" fill="black"/>
<path d="M11.9516 19.8347C11.8669 19.8128 11.7611 19.799 11.6126 19.799C10.856 19.799 10.2621 20.6669 10.2621 21.4628C10.2621 21.828 10.3964 22.1294 10.7571 22.1294C11.1456 22.1294 11.6126 21.6422 11.7752 20.7528L11.9516 19.8347ZM11.6195 22.7248C11.6195 22.5164 11.6476 22.2371 11.6763 21.9427H11.662C11.3228 22.5813 10.863 22.8034 10.4247 22.8034C9.80972 22.8034 9.40625 22.3158 9.40625 21.6133C9.40625 20.423 10.2265 19.1537 11.8315 19.1537C12.2062 19.1537 12.6093 19.2253 12.8781 19.3113L12.5175 21.1327C12.4182 21.6488 12.3618 22.3087 12.3761 22.7248H11.6195Z" fill="black"/>
<path d="M17.5571 21.3408C17.5571 21.8206 17.8046 22.1586 18.2288 22.1586C18.844 22.1586 19.2542 21.2976 19.2542 20.6022C19.2542 20.2434 19.0912 19.7988 18.5967 19.7988C17.9391 19.7988 17.5571 20.6883 17.5571 21.3408ZM20.1025 20.5954C20.1025 21.7853 19.2892 22.8033 18.1159 22.8033C17.2458 22.8033 16.709 22.1939 16.709 21.3619C16.709 20.1792 17.5219 19.1537 18.6956 19.1537C19.6217 19.1537 20.1025 19.8277 20.1025 20.5954Z" fill="black"/>
<path d="M20.2578 22.7247L20.7034 20.3153C20.7881 19.8992 20.8375 19.5336 20.8801 19.2327H21.6158L21.5379 19.8565H21.5518C21.8696 19.3901 22.3083 19.1536 22.7891 19.1536C23.2838 19.1536 23.6657 19.4551 23.6657 20.1147C23.6657 20.2721 23.638 20.5159 23.6024 20.6882L23.2271 22.7247H22.3999L22.7672 20.7527C22.7891 20.6238 22.8101 20.4731 22.8101 20.3367C22.8101 20.0427 22.7041 19.8347 22.3789 19.8347C22.0043 19.8347 21.5233 20.2934 21.3749 21.1114L21.078 22.7247H20.2578Z" fill="black"/>
<path d="M25.8565 19.7775C25.3401 19.7775 25.0011 20.2435 24.9022 20.6669C25.7503 20.6739 26.2952 20.5592 26.2952 20.1363C26.2952 19.9141 26.1184 19.7775 25.8565 19.7775ZM26.6414 22.5238C26.3018 22.7029 25.8427 22.8034 25.4252 22.8034C24.4716 22.8034 24.0117 22.2086 24.0117 21.3551C24.0117 20.301 24.7748 19.1539 25.9627 19.1539C26.6414 19.1539 27.0728 19.548 27.0728 20.1363C27.0728 21.0324 26.1469 21.319 24.8177 21.2906C24.8033 21.4123 24.8316 21.6488 24.9095 21.7852C25.044 22.0221 25.2907 22.1439 25.6164 22.1439C26.0056 22.1439 26.3162 22.0434 26.5644 21.9144L26.6414 22.5238Z" fill="black"/>
<path d="M29.0587 19.7775C28.5428 19.7775 28.2032 20.2435 28.1043 20.6669C28.9525 20.6739 29.4974 20.5592 29.4974 20.1363C29.4974 19.9141 29.3205 19.7775 29.0587 19.7775ZM29.8435 22.5238C29.5045 22.7029 29.0448 22.8034 28.6281 22.8034C27.6737 22.8034 27.2139 22.2086 27.2139 21.3551C27.2139 20.301 27.977 19.1539 29.1649 19.1539C29.8435 19.1539 30.2756 19.548 30.2756 20.1363C30.2756 21.0324 29.349 21.319 28.0199 21.2906C28.0053 21.4123 28.0337 21.6488 28.1116 21.7852C28.2461 22.0221 28.4934 22.1439 28.8186 22.1439C29.2078 22.1439 29.5183 22.0434 29.7665 21.9144L29.8435 22.5238Z" fill="black"/>
<path d="M30.3242 22.7247L30.7271 20.5734C30.8189 20.0788 30.8684 19.541 30.9032 19.2327H31.6176C31.5964 19.4692 31.5755 19.7129 31.5399 19.9642H31.5608C31.7952 19.4979 32.169 19.1536 32.636 19.1536C32.7001 19.1536 32.7634 19.161 32.8201 19.161L32.6572 19.9785C32.6148 19.971 32.5583 19.971 32.5015 19.971C31.9143 19.971 31.5399 20.5734 31.4059 21.319L31.1441 22.7247H30.3242Z" fill="black"/>
<path d="M33.4457 19.5521H33.506C33.5678 19.5521 33.6087 19.5172 33.6087 19.4643C33.6087 19.4049 33.5658 19.3789 33.504 19.3789C33.4755 19.3789 33.4553 19.381 33.4457 19.3832V19.5521ZM33.3867 19.3414C33.4167 19.3359 33.4596 19.3319 33.4995 19.3319C33.562 19.3319 33.6036 19.3449 33.6312 19.3699C33.6538 19.3903 33.6669 19.422 33.6669 19.4585C33.6669 19.5185 33.6297 19.5591 33.5817 19.5753V19.5776C33.6165 19.5897 33.637 19.623 33.6486 19.6708C33.6632 19.7347 33.6741 19.7797 33.6836 19.7977H33.6225C33.6152 19.7837 33.6049 19.7447 33.5933 19.6872C33.5795 19.6233 33.5542 19.5998 33.501 19.5975H33.4457V19.7977H33.3867V19.3414Z" fill="black"/>
<path d="M33.5226 19.1538C33.2979 19.1538 33.1152 19.339 33.1152 19.5669C33.1152 19.7949 33.2979 19.9803 33.5226 19.9803C33.7474 19.9803 33.93 19.7949 33.93 19.5669C33.93 19.339 33.7474 19.1538 33.5226 19.1538ZM33.5226 19.2176C33.7126 19.2176 33.8667 19.3735 33.8667 19.5669C33.8667 19.7601 33.7126 19.9166 33.5226 19.9166C33.3321 19.9166 33.1778 19.7601 33.1778 19.5669C33.1778 19.3735 33.3321 19.2176 33.5226 19.2176Z" fill="black"/>
</g>
<defs>
<clipPath id="clip0_302_7232">
<rect width="28" height="10" fill="white" transform="translate(6 15)"/>
</clipPath>
</defs>
</svg>
