<svg width="40" height="40" viewBox="0 0 40 40" fill="none" xmlns="http://www.w3.org/2000/svg">
<rect width="40" height="40" rx="20" fill="#F7FAFC"/>
<g clip-path="url(#clip0_302_7211)">
<path d="M16.5353 26.5491C16.4763 26.3904 16.3694 26.2822 16.292 26.1415C16.1039 25.8998 15.8827 25.6906 15.6615 25.4814C15.5841 25.4562 15.5509 25.384 15.4771 25.3552C15.4292 25.2939 15.3518 25.2614 15.2891 25.2145C15.1637 25.1207 15.0273 25.0414 14.8872 24.962C14.6218 24.7961 14.2936 24.6915 13.9692 24.5833C13.6189 24.5003 13.2502 24.439 12.8668 24.3885C12.487 24.3344 12.1073 24.2839 11.8197 24.136C11.6538 24.0891 11.5321 23.9989 11.3883 23.9268C11.2556 23.8402 11.1118 23.768 11.0012 23.6598C10.8647 23.5805 10.7799 23.447 10.673 23.3388C10.6362 23.2667 10.5735 23.2234 10.544 23.144C10.5071 23.1296 10.496 23.0863 10.4739 23.0611C10.4481 23.0322 10.4481 22.9745 10.4039 22.9637C10.3818 23.1116 10.3891 23.2883 10.4039 23.4398C10.4223 23.5047 10.4297 23.5841 10.4481 23.649C10.4592 23.7067 10.5145 23.8005 10.4924 23.8438C9.34203 23.7861 8.5014 23.429 7.77138 22.9601C7.41006 22.7256 7.10035 22.4406 6.81277 22.134C6.68741 21.9645 6.551 21.8022 6.44039 21.6146C6.32609 21.4306 6.23023 21.2214 6.127 21.0267C5.9574 20.6046 5.79886 20.1718 5.73986 19.6415C5.66244 19.1473 5.68087 18.5161 5.79517 18.058C5.83573 17.8055 5.92053 17.5927 5.99427 17.3727C6.0422 17.2717 6.09381 17.1707 6.13806 17.0661C6.20074 16.9795 6.23392 16.8604 6.31134 16.7847C6.5215 16.3987 6.83489 16.1102 7.15566 15.8324C7.50223 15.5835 7.89674 15.3815 8.37236 15.2589C8.82954 15.1579 9.45264 15.1399 9.94669 15.2445C10.9495 15.4465 11.7054 15.8865 12.3395 16.4492C12.9811 17.0011 13.4751 17.7009 13.8143 18.5522C14.1646 19.3602 14.2862 20.619 13.9729 21.5353C13.8438 21.4631 13.7148 21.3946 13.5857 21.326C13.4309 21.2828 13.2797 21.2323 13.099 21.2142C12.8815 21.2106 12.6677 21.2142 12.5276 21.2828C12.8115 21.2539 13.0401 21.3296 13.217 21.3946C13.3203 21.4343 13.3793 21.4595 13.4604 21.5064C13.6189 21.5966 13.759 21.6795 13.877 21.8022C14.2125 22.0907 14.4522 22.4731 14.5665 22.9781C14.5665 22.9925 14.5849 22.9889 14.5812 22.9637C14.596 22.9601 14.6033 22.9492 14.6107 22.9348C14.6291 22.9132 14.6513 22.8915 14.6697 22.8663C14.7066 22.823 14.7434 22.7797 14.7692 22.7256C14.8467 22.6354 14.9093 22.5344 14.9683 22.4298C15.1048 22.235 15.208 22.0114 15.326 21.7986C15.5288 21.3441 15.6947 20.8535 15.7979 20.298C16.0044 19.0644 15.7573 17.8957 15.326 17.0336C14.8835 16.1643 14.2641 15.4681 13.4641 14.9451C12.6566 14.4257 11.7127 14.0433 10.4149 14.0072C10.4076 13.982 10.3965 14.0108 10.3707 14.0072C9.68492 13.9856 9.13187 14.0794 8.58251 14.2164C8.32811 14.2994 8.06265 14.3715 7.83775 14.4834C7.57966 14.5663 7.37319 14.7034 7.13722 14.8044C7.05242 14.8838 6.92338 14.9234 6.83489 14.9992C6.7206 15.0533 6.6358 15.1399 6.5215 15.194C6.33715 15.3527 6.14174 15.4934 5.96108 15.6557C5.78411 15.8144 5.62926 15.9947 5.45966 16.1607C5.43385 16.2184 5.3896 16.2581 5.34536 16.3013C5.31586 16.3555 5.27899 16.4023 5.23106 16.442C5.21263 16.5069 5.15364 16.5322 5.13152 16.5971C5.08359 16.6332 5.07252 16.7053 5.01722 16.7378C4.96929 16.8532 4.88449 16.9362 4.82918 17.0444C4.76282 17.149 4.7112 17.2644 4.64484 17.3654C4.5416 17.5999 4.43099 17.8271 4.34619 18.0796C4.2577 18.3249 4.18397 18.5846 4.13235 18.866C4.07704 19.1293 4.02543 19.472 4.0328 19.7497C3.99593 19.8507 4.02543 20.0383 4.0328 20.1573C4.0328 20.179 4.01805 20.1862 4.01805 20.2006C4.01805 20.3341 4.05492 20.4964 4.0623 20.5794C4.09179 20.886 4.1471 21.1709 4.23558 21.4198C4.29089 21.6976 4.40887 21.914 4.49367 22.1629C4.62271 22.3721 4.7112 22.621 4.86605 22.8086C4.98035 23.0286 5.14258 23.2017 5.29743 23.3821C5.46334 23.5552 5.62926 23.732 5.82835 23.8727C6.19336 24.1829 6.62105 24.4318 7.08929 24.6446C7.9631 25.0594 9.26829 25.3299 10.4407 25.2614C10.7394 25.2217 11.0417 25.1856 11.3146 25.1207C11.5653 25.0305 11.8565 24.9764 12.1589 24.9404C12.8483 24.8971 13.4456 24.9584 13.9765 25.1099C14.5148 25.2506 14.9794 25.4634 15.3813 25.7411C15.5951 25.8638 15.7721 26.0225 15.9528 26.174C16.1371 26.3291 16.2846 26.5203 16.4542 26.6934C16.4763 26.7583 16.5205 26.8052 16.5537 26.8629C16.598 26.9098 16.5759 27.018 16.6828 27.0036C16.7491 26.9387 16.6717 26.8449 16.668 26.7656C16.6017 26.697 16.5869 26.6068 16.5353 26.5491Z" fill="#FCB316"/>
<path d="M13.8589 22.7112C13.8441 22.7112 13.8404 22.722 13.8294 22.7256C13.8036 22.7797 13.8146 22.8663 13.8294 22.9204C13.9068 23.0755 13.9326 23.2775 14.1022 23.3424C14.1833 23.3172 14.176 23.2017 14.1723 23.0899C14.1354 22.9529 14.0838 22.8302 13.999 22.74C13.94 22.7184 13.8994 22.6823 13.8589 22.7112ZM12.856 23.1044C12.856 23.0971 12.845 23.0899 12.8413 23.1044C12.7012 23.0863 12.6532 23.1621 12.5832 23.2162C12.4615 23.53 12.6569 23.8366 12.9998 23.833C13.1362 23.8005 13.221 23.714 13.2432 23.5661C13.2247 23.3027 13.1104 23.1332 12.856 23.1044Z" fill="#FCB316"/>
<path d="M21.1223 22.1052C21.1776 22.3324 21.2955 22.4947 21.4283 22.6462C21.561 22.7977 21.7159 22.924 21.9039 23.0177C22.0809 23.126 22.2726 23.2161 22.4938 23.2775C22.6007 23.3135 22.704 23.3568 22.8367 23.3712C22.9289 23.4217 23.0395 23.447 23.0469 23.5768C23.0432 23.732 22.9362 23.7897 22.7998 23.8185C22.6634 23.7897 22.4938 23.7933 22.3795 23.7428C22.0919 23.7103 21.8597 23.6201 21.6163 23.5372C21.1518 23.3604 20.7609 23.1043 20.4365 22.7905C20.3701 22.6823 20.2779 22.5957 20.2079 22.4911C20.1378 22.3865 20.0899 22.2603 20.0162 22.1557C19.4484 22.0835 19.0612 21.831 18.722 21.5388C18.4087 21.1889 18.1579 20.7705 18.0547 20.215C17.933 19.6812 17.9699 19.0139 18.1137 18.498C18.4271 17.4989 19.0834 16.8352 20.3222 16.745C20.6651 16.7558 20.9637 16.7955 21.2366 16.8965C21.5131 16.9939 21.7749 17.1742 21.9813 17.3618C21.9998 17.3762 22.0071 17.3798 22.0182 17.3979C22.0624 17.4592 22.1694 17.5458 22.2283 17.6215C22.2394 17.6359 22.2357 17.6612 22.2468 17.6792C22.2689 17.7117 22.3021 17.7261 22.3242 17.755C22.3353 17.773 22.3316 17.7947 22.3426 17.8091C22.3574 17.8307 22.3758 17.8632 22.398 17.9029C22.4053 17.9173 22.4311 17.9281 22.4348 17.9389C22.468 18.0003 22.4828 18.076 22.5122 18.1446C22.5417 18.2167 22.5823 18.278 22.6081 18.3502C22.6818 18.563 22.7298 18.8155 22.7593 19.0752C22.833 19.8255 22.6818 20.4964 22.398 20.9942C22.2652 21.2539 22.0809 21.4667 21.8633 21.647C21.6642 21.8527 21.3914 21.9753 21.1223 22.1052ZM20.2079 17.4087C20.042 17.4195 19.9424 17.4953 19.806 17.5386C19.7175 17.6179 19.6069 17.6792 19.5406 17.7802C19.4299 17.8416 19.4004 17.9786 19.312 18.058C19.2382 18.2383 19.1682 18.4403 19.1202 18.6748C19.076 18.9057 19.0465 19.1654 19.0428 19.4215C19.0391 20.0635 19.1792 20.702 19.441 21.0807C19.5959 21.2647 19.7839 21.4162 20.0125 21.528C20.1452 21.5388 20.2485 21.5821 20.3922 21.5857C20.4734 21.5569 20.6061 21.5857 20.6577 21.528C20.7757 21.5352 20.8015 21.4595 20.9047 21.4523C20.96 21.3982 21.019 21.3549 21.0965 21.3224C21.1665 21.2467 21.2329 21.1709 21.3066 21.0988C21.3435 21.0447 21.3656 20.9689 21.4209 20.9292C21.7527 20.3088 21.7896 19.1726 21.5721 18.4512C21.491 18.1878 21.3767 17.975 21.2476 17.7983C21.1075 17.6576 20.9416 17.5386 20.7536 17.4448C20.6024 17.4123 20.4586 17.3726 20.2595 17.3907C20.2485 17.3907 20.2374 17.3943 20.2411 17.4087C20.2337 17.4087 20.2226 17.4087 20.2079 17.4087ZM24.2304 16.8857C24.529 16.8965 24.8793 16.8604 25.1447 16.9037C25.2037 16.9939 25.1816 17.1021 25.1816 17.2031C25.2037 18.5702 25.1816 20.0383 25.1816 21.4342C25.1816 21.5461 25.1853 21.6615 25.1816 21.7697C25.1779 21.8635 25.2037 21.9645 25.1447 22.051C25.012 22.0835 24.8203 22.0691 24.6507 22.0691C24.47 22.0691 24.2931 22.0943 24.1751 22.033C24.1419 20.381 24.1419 18.599 24.1751 16.9434C24.1824 16.9145 24.2009 16.8965 24.2304 16.8857ZM26.5163 16.8857H27.4122C27.4933 16.9939 27.5191 17.1562 27.545 17.3149C27.8141 18.3177 28.0796 19.3241 28.3266 20.3521C28.3856 20.3593 28.3671 20.2908 28.3856 20.2583C28.4114 20.2331 28.3966 20.1717 28.4225 20.1465C28.4335 20.0635 28.4851 20.0202 28.4814 19.9229C28.5478 19.7966 28.5699 19.6235 28.6326 19.4936C28.71 19.1906 28.8133 18.9093 28.9018 18.6171C28.9866 18.3141 29.1009 18.0399 29.1672 17.7225C29.2926 17.4664 29.3221 17.1165 29.4732 16.8857H29.853C29.9894 17.1382 30.041 17.4736 30.159 17.7442C30.2364 18.0472 30.3434 18.3213 30.4245 18.6207C30.6125 19.2014 30.8079 19.775 30.9775 20.3737C31.0549 20.2619 31.0549 20.0744 31.1102 19.9445C31.1434 19.7966 31.1729 19.6451 31.2245 19.5153C31.372 18.9237 31.5121 18.3285 31.6817 17.7622C31.7444 17.4664 31.8071 17.1634 31.9103 16.9037C32.1315 16.8712 32.4707 16.8712 32.692 16.9037C32.7104 17.1237 32.6072 17.3618 32.5408 17.5566C32.5039 17.7947 32.4154 17.9786 32.3675 18.2095C32.2311 18.6315 32.1278 19.0788 31.9877 19.4972C31.8808 19.9445 31.737 20.3557 31.6264 20.803C31.5527 21.0086 31.5011 21.2358 31.4347 21.4559C31.361 21.6579 31.3352 21.9068 31.2245 22.0727H30.6899C30.5535 21.8382 30.5056 21.5208 30.3839 21.2719C30.1185 20.4495 29.8235 19.6595 29.5654 18.8299C29.4769 18.9201 29.4769 19.104 29.4142 19.2195C29.3737 19.3601 29.3331 19.5008 29.2815 19.6307C29.2078 19.9156 29.0972 20.1573 29.0345 20.4495C28.9276 20.7056 28.8501 20.9906 28.769 21.2719C28.6584 21.5172 28.6179 21.831 28.4814 22.0547C28.3413 22.0979 28.1201 22.0619 27.9468 22.0727C27.8141 21.9248 27.7994 21.6579 27.7182 21.4559C27.6556 21.2467 27.6113 21.0158 27.5302 20.821C27.427 20.3665 27.2721 19.9661 27.1689 19.5153C27.0325 19.0968 26.9145 18.6604 26.7891 18.2275C26.7191 18.0219 26.6675 17.8019 26.5974 17.5927C26.5642 17.369 26.4094 17.167 26.4647 16.9217C26.472 16.9037 26.4942 16.8929 26.5163 16.8857ZM34.0414 16.8857C34.34 16.8965 34.6866 16.8604 34.9558 16.9037C35.0221 17.0985 34.9926 17.3077 34.9926 17.5169V21.4306C34.9926 21.6434 35.0184 21.849 34.9558 22.0474C34.7493 22.0691 34.447 22.0799 34.1926 22.0655C34.1188 22.0619 34.0303 22.0835 33.9824 22.0294C33.916 21.8346 33.9455 21.629 33.9455 21.4126V17.5386C33.9455 17.3041 33.9234 17.0768 33.9824 16.9217C33.9971 16.9037 34.0193 16.8929 34.0414 16.8857Z" fill="#0269B3"/>
</g>
<defs>
<clipPath id="clip0_302_7211">
<rect width="31" height="13" fill="white" transform="translate(4 14)"/>
</clipPath>
</defs>
</svg>
