<svg width="40" height="40" viewBox="0 0 40 40" fill="none" xmlns="http://www.w3.org/2000/svg">
<rect width="40" height="40" rx="20" fill="#F7FAFC"/>
<g clip-path="url(#clip0_302_7275)">
<mask id="mask0_302_7275" style="mask-type:alpha" maskUnits="userSpaceOnUse" x="6" y="14" width="28" height="12">
<path d="M6.00391 14.0436H33.9806V25.999H6.00391V14.0436Z" fill="white"/>
</mask>
<g mask="url(#mask0_302_7275)">
<path fill-rule="evenodd" clip-rule="evenodd" d="M8.92389 19.4214C8.32096 19.1917 7.99054 19.013 7.99054 18.7322C7.99054 18.4939 8.18053 18.3577 8.51919 18.3577C9.13866 18.3577 9.77461 18.6045 10.2124 18.8257L10.4602 17.2516C10.1133 17.0814 9.40293 16.8006 8.42008 16.8006C7.72627 16.8006 7.14806 16.9877 6.73512 17.3366C6.30558 17.7025 6.08258 18.2301 6.08258 18.8683C6.08258 20.0255 6.76814 20.5191 7.88319 20.936C8.60177 21.1998 8.84132 21.387 8.84132 21.6763C8.84132 21.9571 8.61001 22.1188 8.18877 22.1188C7.66842 22.1188 6.80946 21.855 6.24779 21.5147L6 23.1059C6.47904 23.3867 7.37107 23.676 8.29619 23.676C9.03125 23.676 9.64248 23.4973 10.0555 23.1569C10.518 22.7825 10.7575 22.2294 10.7575 21.5147C10.7575 20.3318 10.0555 19.8383 8.92389 19.4214ZM14.7913 18.4939L15.0391 16.9282H13.731V15.0275L11.9722 15.3257L11.7182 16.9282L11.0996 17.0316L10.868 18.4939H11.7157V21.5657C11.7157 22.3656 11.9139 22.9187 12.3186 23.259C12.6572 23.5398 13.1445 23.676 13.8301 23.676C14.3587 23.676 14.6808 23.5824 14.9038 23.5228V21.8635C14.7799 21.8976 14.4991 21.9571 14.3091 21.9571C13.9044 21.9571 13.731 21.7444 13.731 21.2594V18.4939H14.7913ZM18.7197 16.8367C18.1416 16.8367 17.679 17.1495 17.4973 17.7111L17.3735 16.9282H15.5811V23.5483H17.6295V19.2512C17.8856 18.9278 18.2489 18.8109 18.7445 18.8109C18.8519 18.8109 18.9675 18.8109 19.108 18.8364V16.8878C18.9675 16.8538 18.8436 16.8367 18.7197 16.8367ZM20.636 16.273C21.2307 16.273 21.7097 15.771 21.7097 15.1583C21.7097 14.5371 21.2307 14.0436 20.636 14.0436C20.033 14.0436 19.554 14.5371 19.554 15.1583C19.554 15.771 20.033 16.273 20.636 16.273ZM19.6035 16.9282H21.6602V23.5483H19.6035V16.9282ZM27.4883 17.5238C27.1249 17.0388 26.6211 16.8006 25.9768 16.8006C25.3821 16.8006 24.8618 17.0558 24.3744 17.5919L24.2671 16.9282H22.4665V25.999L24.5149 25.6501V23.5228C24.8287 23.6249 25.1508 23.676 25.4399 23.676C25.952 23.676 26.6954 23.5398 27.2736 22.8932C27.8269 22.2719 28.1078 21.3104 28.1078 20.0426C28.1078 18.9193 27.9013 18.0684 27.4883 17.5238ZM25.7868 21.6082C25.6216 21.9316 25.3656 22.1018 25.0682 22.1018C24.8618 22.1018 24.68 22.0592 24.5149 21.9742V18.8257C24.8618 18.4514 25.1756 18.4088 25.2913 18.4088C25.8116 18.4088 26.0676 18.9874 26.0676 20.1191C26.0676 20.7658 25.9768 21.2679 25.7868 21.6082ZM33.9804 20.1787C33.9804 19.1236 33.7574 18.2896 33.3196 17.7025C32.8736 17.1069 32.2045 16.8006 31.3538 16.8006C29.611 16.8006 28.529 18.128 28.529 20.2553C28.529 21.4466 28.8181 22.34 29.388 22.9101C29.9001 23.4207 30.6352 23.676 31.5851 23.676C32.4606 23.676 33.27 23.4633 33.7821 23.1144L33.5591 21.6678C33.0552 21.9486 32.4689 22.1018 31.8081 22.1018C31.4116 22.1018 31.139 22.0167 30.9408 21.838C30.726 21.6508 30.6022 21.3445 30.5609 20.9105H33.9556C33.9638 20.8084 33.9804 20.3318 33.9804 20.1787ZM30.5444 19.6171C30.6022 18.6726 30.8499 18.2301 31.3207 18.2301C31.7833 18.2301 32.0228 18.6811 32.0559 19.6171H30.5444Z" fill="#1A1918"/>
</g>
</g>
<defs>
<clipPath id="clip0_302_7275">
<rect width="28" height="12" fill="white" transform="translate(6 14)"/>
</clipPath>
</defs>
</svg>
