<svg width="40" height="40" viewBox="0 0 40 40" fill="none" xmlns="http://www.w3.org/2000/svg">
<rect width="40" height="40" rx="20" fill="#F7FAFC"/>
<g clip-path="url(#clip0_302_7688)">
<path fill-rule="evenodd" clip-rule="evenodd" d="M4.12571 16.6191C4.92352 17.5988 5.79948 18.8294 5.94117 19.0285C5.94872 19.0391 5.95415 19.0468 5.95744 19.0514C6.03296 19.157 6.09531 19.2355 6.14265 19.2951C6.24778 19.4275 6.27896 19.4667 6.21625 19.5028C6.16568 19.5319 6.11344 19.5415 6.06137 19.5415C6.00249 19.5415 5.93611 19.5128 5.88781 19.4664C5.85364 19.4337 5.61995 19.0903 5.3017 18.5907C5.0582 18.2085 4.85442 17.8914 4.8489 17.8861C4.83602 17.8738 4.83625 17.8742 5.27688 18.6718C5.55355 19.1727 5.74282 19.5428 5.74282 19.5665C5.74282 19.6147 5.72984 19.64 5.67109 19.7062C5.57318 19.8168 5.52943 19.9409 5.49782 20.1979C5.46242 20.4859 5.36281 20.6894 5.08681 21.0377C4.92525 21.2415 4.8988 21.2789 4.85805 21.3611C4.80668 21.4645 4.79257 21.5225 4.78685 21.6531C4.78079 21.7913 4.79257 21.8805 4.83429 22.0126C4.87082 22.1282 4.90891 22.2046 5.00639 22.3573C5.0905 22.4891 5.13891 22.587 5.13891 22.6253C5.13891 22.6558 5.14466 22.6559 5.27498 22.6261C5.58688 22.5548 5.84013 22.4295 5.98256 22.2759C6.07072 22.1809 6.09142 22.1284 6.09208 21.9981C6.09255 21.9129 6.08955 21.8951 6.0668 21.8461C6.02974 21.7663 5.9623 21.6999 5.81362 21.5971C5.61876 21.4624 5.53555 21.3539 5.51256 21.2047C5.4937 21.0823 5.51555 20.9959 5.62335 20.7674C5.73493 20.5308 5.76258 20.43 5.78128 20.1916C5.79335 20.0375 5.81006 19.9768 5.85381 19.928C5.89945 19.8772 5.94054 19.86 6.05342 19.8443C6.23754 19.8189 6.35475 19.7707 6.45113 19.6809C6.5347 19.603 6.56967 19.5279 6.57506 19.4148L6.57912 19.3292L6.53241 19.2741C6.36326 19.0745 4.01243 16.4623 4.00202 16.4623C3.99979 16.4623 4.05545 16.5329 4.12571 16.6191ZM5.23389 21.8094C5.27215 21.7409 5.25179 21.6528 5.18781 21.6098C5.12736 21.5691 5.03348 21.5883 5.03348 21.6413C5.03348 21.6574 5.04233 21.6692 5.06222 21.6796C5.09579 21.697 5.09822 21.7167 5.07184 21.7568C5.04509 21.7975 5.04725 21.8332 5.07789 21.8574C5.1273 21.8966 5.19723 21.8751 5.23386 21.8094H5.23389ZM6.38506 18.0726C6.3096 18.0607 6.30641 18.0593 6.34194 18.0539C6.40997 18.0433 6.57067 18.0577 6.68142 18.0843C6.93996 18.1465 7.17521 18.3058 7.42633 18.5886L7.49303 18.6638L7.58848 18.6483C7.99055 18.5829 8.39957 18.6348 8.74168 18.7947C8.8358 18.8387 8.98418 18.9263 9.00271 18.9488C9.0086 18.9559 9.01948 19.0021 9.0268 19.0514C9.05222 19.2218 9.03951 19.3524 8.98797 19.4499C8.95996 19.503 8.95839 19.5199 8.97723 19.5653C8.99226 19.6016 9.03422 19.6284 9.07577 19.6283C9.16077 19.6282 9.25227 19.4892 9.29468 19.2957L9.31152 19.2189L9.34489 19.2571C9.52787 19.4669 9.67163 19.753 9.69632 19.9566L9.70274 20.0096L9.672 19.9614C9.61903 19.8783 9.56587 19.8218 9.49773 19.7762C9.37496 19.694 9.24511 19.666 8.9013 19.6477C8.59077 19.6312 8.41504 19.6043 8.24077 19.5468C7.94424 19.449 7.79479 19.3188 7.44256 18.8513C7.28613 18.6436 7.18945 18.5287 7.09323 18.4362C6.87472 18.226 6.65996 18.1157 6.38506 18.0726ZM9.07274 18.5362C9.08056 18.3971 9.09923 18.3053 9.13672 18.2215C9.15156 18.1883 9.16546 18.1612 9.16759 18.1612C9.16976 18.1612 9.1633 18.1856 9.15325 18.2156C9.12601 18.2969 9.12152 18.4082 9.14031 18.5376C9.16413 18.7019 9.17771 18.7255 9.34928 18.903C9.42976 18.9862 9.52338 19.0911 9.55731 19.1362L9.61903 19.2181L9.55731 19.1596C9.48186 19.088 9.30832 18.9483 9.27 18.9284C9.24428 18.915 9.24045 18.9152 9.22462 18.9312C9.21001 18.9459 9.20692 18.968 9.20489 19.0725C9.20173 19.2353 9.1798 19.3399 9.12684 19.4444C9.09819 19.501 9.09367 19.4889 9.11959 19.4251C9.13895 19.3774 9.14091 19.3565 9.14078 19.1988C9.14048 18.882 9.10328 18.8059 8.88527 18.6754C8.83007 18.6424 8.73905 18.5947 8.68306 18.5695C8.6271 18.5443 8.58261 18.5223 8.58421 18.5207C8.5904 18.5144 8.80303 18.5772 8.8886 18.6105C9.01588 18.6601 9.03688 18.6665 9.05235 18.6605C9.0627 18.6565 9.06772 18.626 9.07274 18.5362ZM6.30418 18.293C6.28365 18.5376 6.37843 18.8648 6.53164 19.0782C6.65041 19.2436 6.83453 19.3721 6.97047 19.3845C7.05943 19.3927 7.08618 19.3645 7.04592 19.305C6.99003 19.2224 6.92126 19.0953 6.90306 19.0408C6.89175 19.007 6.86723 18.9071 6.8485 18.8188C6.78459 18.5174 6.72174 18.4 6.57669 18.3109C6.52379 18.2784 6.41087 18.2359 6.3454 18.2238L6.31053 18.2173L6.30418 18.293ZM8.88693 20.6663C8.17094 20.3747 7.91875 20.1215 7.91875 19.6944C7.91875 19.6315 7.92091 19.5801 7.92351 19.5801C7.92614 19.5801 7.95382 19.6009 7.98506 19.6262C8.13025 19.744 8.29284 19.7943 8.74294 19.8608C9.00777 19.8999 9.15682 19.9314 9.29432 19.9776C9.73132 20.1242 10.0017 20.4217 10.0662 20.8271C10.0849 20.9448 10.0739 21.1656 10.0436 21.282C10.0196 21.374 9.94637 21.5397 9.92697 21.546C9.92158 21.5478 9.91629 21.5269 9.91493 21.4985C9.90758 21.3464 9.83156 21.1982 9.7039 21.0872C9.55875 20.961 9.36372 20.8606 8.88693 20.6663ZM8.34969 20.6342C8.35974 20.6645 8.37531 20.7335 8.38426 20.7875C8.44162 21.1328 8.26246 21.4118 7.91396 21.5199C7.87707 21.5313 7.73174 21.5601 7.59101 21.5838C7.30613 21.6318 7.179 21.6658 7.05128 21.728C6.96069 21.7722 6.851 21.8383 6.85752 21.8448C6.85961 21.847 6.88031 21.842 6.90346 21.8337C7.06455 21.7765 7.24381 21.7469 7.51616 21.7326C7.62425 21.7269 7.74718 21.7178 7.78937 21.7125C8.032 21.6816 8.20018 21.607 8.33096 21.4723C8.40372 21.3974 8.44711 21.3276 8.48207 21.2291C8.50423 21.1667 8.50723 21.1435 8.50739 21.0329C8.50759 20.9201 8.5049 20.8995 8.48088 20.8302C8.44944 20.7392 8.41234 20.671 8.36536 20.6177L8.33143 20.5792L8.34969 20.6342ZM8.7125 21.3772C8.61735 21.1703 8.59552 20.9706 8.64762 20.7843C8.65321 20.7644 8.66216 20.7481 8.66758 20.7481C8.67297 20.7481 8.6954 20.7604 8.71746 20.7754C8.76127 20.8052 8.8492 20.8555 9.08342 20.9847C9.37573 21.1459 9.54238 21.2707 9.65569 21.4134C9.75494 21.5383 9.81635 21.6806 9.8459 21.854C9.86266 21.9523 9.85285 22.1888 9.82793 22.2877C9.74935 22.5997 9.5667 22.8448 9.3062 22.9878C9.26804 23.0087 9.23377 23.0259 9.23004 23.026C9.22635 23.0261 9.24025 22.9903 9.26095 22.9465C9.34858 22.7612 9.35856 22.5809 9.29232 22.3802C9.25173 22.2574 9.16902 22.1075 9.00201 21.8541C8.80785 21.5595 8.76024 21.4811 8.7125 21.3772ZM6.9206 22.0558C6.61951 22.1053 6.28887 22.2665 6.02318 22.4935L5.9441 22.561L6.01363 22.572C6.37637 22.6293 6.47408 22.6801 6.7257 22.9424C6.87049 23.0933 6.9194 23.1269 7.03954 23.1579C7.21593 23.2034 7.38983 23.1197 7.44948 22.9605C7.47613 22.8894 7.47257 22.7716 7.442 22.7124C7.36927 22.5716 7.15738 22.5261 7.05494 22.6292C6.96957 22.7152 6.99446 22.8446 7.10059 22.8669C7.12487 22.872 7.12421 22.8709 7.0944 22.8573C7.04795 22.836 7.02776 22.8066 7.02753 22.7597C7.02693 22.6498 7.15129 22.588 7.26693 22.6408C7.35164 22.6795 7.38527 22.73 7.38527 22.8186C7.38527 22.955 7.27053 23.0578 7.13702 23.041C7.06562 23.032 6.97832 22.9858 6.93154 22.9323C6.81377 22.7975 6.85965 22.5849 7.02407 22.5034C7.14926 22.4413 7.31567 22.4566 7.44469 22.5421C7.59294 22.6403 7.65599 22.7301 7.78368 23.0247C7.82526 23.1206 7.87876 23.2286 7.90255 23.2647C8.02352 23.4479 8.16844 23.5377 8.34301 23.5377C8.43929 23.5377 8.51172 23.5199 8.60284 23.4739C8.67055 23.4397 8.76653 23.3747 8.75961 23.3677C8.75765 23.3657 8.72957 23.3746 8.6972 23.3873C8.50659 23.4625 8.31283 23.4574 8.20031 23.374C8.12945 23.3216 8.07229 23.2171 8.04291 23.0864C8.03782 23.0638 8.02106 22.9639 8.00562 22.8644C7.96649 22.6122 7.92893 22.4988 7.84133 22.3687C7.75171 22.2356 7.5794 22.1239 7.38677 22.074C7.2666 22.0429 7.05041 22.0344 6.9206 22.0558ZM6.49887 20.106C6.52485 20.0088 6.60886 19.9161 6.69529 19.8893C6.75026 19.8722 6.86384 19.8831 6.91727 19.9106C7.02074 19.9638 7.09593 20.0851 7.07963 20.1726C7.0597 20.2794 6.88862 20.3648 6.6918 20.3662C6.59126 20.3669 6.55416 20.3532 6.51577 20.3014C6.49198 20.2692 6.483 20.1653 6.49887 20.106ZM6.89082 19.9486C6.94245 19.9805 6.9557 20.0277 6.92539 20.0713C6.90446 20.1013 6.83975 20.1299 6.79244 20.1299C6.72138 20.1299 6.64386 20.0789 6.64386 20.0321C6.64386 19.9382 6.79254 19.8879 6.89082 19.9486ZM22.3179 20.2176C22.1574 19.6827 22.4222 19.239 22.9872 19.0964C23.1492 19.0555 23.8829 19.074 24.0086 19.1221C24.0548 19.1398 24.0749 19.2075 24.0753 19.3467C24.0756 19.4564 24.0875 19.5896 24.1018 19.6427C24.1234 19.7232 24.1108 19.739 24.0259 19.7377C23.9492 19.7365 23.9029 19.6915 23.8381 19.5553C23.7346 19.3377 23.6094 19.2685 23.3175 19.2677C22.9449 19.2666 22.6722 19.5179 22.7166 19.8215C22.7455 20.0191 22.9426 20.2135 23.3849 20.4807C23.8057 20.7349 24.0514 20.944 24.1492 21.1313C24.4109 21.6321 24.1874 22.168 23.6044 22.438C23.3051 22.5766 22.8035 22.5909 22.4508 22.471L22.225 22.3941V22.0327C22.225 21.7054 22.2328 21.6712 22.3073 21.6712C22.3696 21.6712 22.3965 21.7125 22.4184 21.8417C22.4728 22.163 22.7166 22.3581 23.0638 22.3581C23.404 22.3581 23.6417 22.172 23.7328 21.8344C23.7716 21.6907 23.7649 21.6376 23.688 21.479C23.5958 21.2888 23.437 21.1626 22.8976 20.851C22.5984 20.6781 22.3868 20.4468 22.3179 20.2176ZM11.7455 19.31C11.6719 19.31 11.6432 19.2859 11.6432 19.2241C11.6432 19.1423 11.6719 19.1382 12.2486 19.1382C12.7838 19.1382 12.8523 19.1463 12.8401 19.2078C12.8324 19.2461 12.7584 19.2992 12.6756 19.3259L12.525 19.3743L12.5122 20.4691C12.5036 21.1996 12.5157 21.621 12.5485 21.7356C12.6462 22.0763 12.944 22.2723 13.3643 22.2723C13.6569 22.2723 13.8278 22.2038 14.0425 22.0003C14.2735 21.7816 14.3103 21.5737 14.3096 20.4935C14.3089 19.428 14.2903 19.3401 14.0619 19.318C13.9579 19.3079 13.9231 19.2837 13.9231 19.2214C13.9231 19.1437 13.9574 19.1382 14.4392 19.1382C14.9267 19.1382 14.9554 19.143 14.9554 19.2241C14.9554 19.277 14.9265 19.3102 14.8801 19.3106C14.6809 19.3124 14.6772 19.3314 14.6504 20.4997C14.6226 21.713 14.5966 21.8566 14.3511 22.1538C14.2803 22.2396 14.1115 22.3641 13.976 22.4305C13.7551 22.5388 13.6848 22.5512 13.2993 22.5505C12.944 22.5498 12.8318 22.5326 12.6541 22.4516C12.3947 22.3333 12.226 22.1803 12.1017 21.9503C12.0149 21.7897 12.0075 21.7028 11.9874 20.6151C11.9643 19.37 11.9532 19.31 11.7455 19.31ZM15.7707 19.31C15.6723 19.31 15.6437 19.2906 15.6437 19.2241C15.6437 19.1436 15.6711 19.1384 16.0846 19.1418L16.5255 19.1453L16.7364 19.3886C16.8524 19.5224 17.2305 19.9411 17.5765 20.3188C17.9226 20.6967 18.3199 21.1362 18.4594 21.2955C18.5989 21.455 18.7302 21.5854 18.7512 21.5854C18.7728 21.5854 18.7835 21.1351 18.7758 20.5512L18.7623 19.5171L18.6416 19.4135C18.5752 19.3565 18.4736 19.31 18.4158 19.31C18.3388 19.31 18.3106 19.2866 18.3106 19.2229C18.3106 19.139 18.3326 19.1362 18.9021 19.1478C19.3863 19.1575 19.4935 19.1711 19.4935 19.2224C19.4935 19.2589 19.4336 19.2972 19.3497 19.3143C19.2707 19.3305 19.1836 19.366 19.1562 19.3933C19.1208 19.4286 19.1028 19.8843 19.0941 20.9649L19.0817 22.4869H18.9571C18.8498 22.4869 18.722 22.3659 18.039 21.6175C17.6026 21.1394 17.0932 20.5711 16.907 20.3547C16.7208 20.1382 16.554 19.9595 16.5362 19.9576C16.4863 19.952 16.4984 21.8856 16.5494 22.0691C16.5893 22.2121 16.6166 22.2367 16.7858 22.2819C16.922 22.3183 16.9771 22.3552 16.9771 22.41C16.9771 22.4803 16.9252 22.4869 16.3749 22.4869C15.8148 22.4869 15.7727 22.4813 15.7727 22.4064C15.7727 22.3516 15.8132 22.3179 15.8998 22.3006C16.1625 22.2481 16.1799 22.1649 16.1946 20.893C16.2029 20.1806 16.1908 19.6822 16.1626 19.5778C16.1131 19.3943 15.9897 19.31 15.7707 19.31ZM20.2811 19.31C20.189 19.31 20.1603 19.2896 20.1603 19.2241C20.1603 19.142 20.189 19.1382 20.8055 19.1382C21.422 19.1382 21.4507 19.142 21.4507 19.2241C21.4507 19.2871 21.422 19.31 21.3432 19.31C21.2841 19.31 21.1962 19.3494 21.1479 19.3975C21.0627 19.4826 21.0605 19.5249 21.0726 20.8393C21.0844 22.1224 21.0895 22.1966 21.1686 22.2543C21.2145 22.2878 21.2968 22.3152 21.3514 22.3152C21.422 22.3152 21.4507 22.3399 21.4507 22.4011C21.4507 22.4831 21.422 22.4869 20.8055 22.4869C20.2036 22.4869 20.1603 22.4815 20.1603 22.4066C20.1603 22.3461 20.2025 22.3194 20.3307 22.299C20.5852 22.2583 20.5982 22.1752 20.5824 20.691C20.5697 19.5024 20.5642 19.4283 20.4854 19.3708C20.4395 19.3374 20.3476 19.31 20.2811 19.31ZM24.7819 19.31C24.7231 19.31 24.6783 19.2773 24.6644 19.2241C24.6427 19.1411 24.6631 19.1382 25.2831 19.1382C25.8956 19.1382 25.9243 19.142 25.9243 19.2241C25.9243 19.2901 25.8956 19.31 25.8005 19.31C25.5297 19.31 25.5358 19.3591 25.9457 20.4818C26.1542 21.0533 26.3568 21.5962 26.3957 21.6883L26.4665 21.8556L26.795 20.9799C27.1818 19.9491 27.232 19.7585 27.1664 19.5705C27.1206 19.4395 26.9426 19.31 26.8083 19.31C26.7703 19.31 26.7416 19.273 26.7416 19.2241C26.7416 19.1419 26.7703 19.1382 27.4084 19.1382C28.0464 19.1382 28.0751 19.1419 28.0751 19.2241C28.0751 19.2852 28.0464 19.31 27.9758 19.31C27.7949 19.31 27.7152 19.4062 27.7412 19.5932C27.7679 19.7857 28.5077 21.8547 28.5388 21.8238C28.5892 21.7734 29.4086 19.5462 29.4086 19.4593C29.4086 19.3553 29.3356 19.31 29.1685 19.31C29.0931 19.31 29.0644 19.2863 29.0644 19.2241C29.0644 19.143 29.0931 19.1382 29.5806 19.1382C30.0185 19.1382 30.0968 19.1484 30.0968 19.2049C30.0968 19.2415 30.0432 19.2902 29.9776 19.313C29.8302 19.3643 29.7931 19.4228 29.6082 19.8972C29.5269 20.1055 29.2727 20.7574 29.0432 21.3458C28.8966 21.7214 28.7502 22.0971 28.604 22.4728C28.5919 22.5042 28.5208 22.5299 28.4459 22.5299H28.3097L28.0008 21.7249C27.8516 21.3365 27.7029 20.948 27.5546 20.5593C27.4253 20.2195 27.4145 20.2047 27.3659 20.3017C27.3375 20.3584 27.1333 20.8838 26.9121 21.4694L26.51 22.5341L26.3599 22.5212L26.2099 22.5084L25.6375 21.0091C25.3177 20.1715 25.0236 19.4657 24.971 19.4099C24.9193 19.3549 24.8342 19.31 24.7819 19.31ZM33.3829 19.3282C33.3757 19.3119 33.3758 19.2532 33.3758 19.2532C33.3758 19.2532 33.3741 19.2321 33.383 19.2208C33.3918 19.2096 33.3949 19.2093 33.4266 19.2063L33.4269 19.2063C33.543 19.1952 33.776 19.1766 33.9705 19.1681C33.9883 19.1673 34.0081 19.1664 34.0296 19.1654H34.0305C34.2445 19.1556 34.6275 19.1426 34.8907 19.1558C35.3957 19.1811 35.755 19.4256 35.8774 19.8297C35.9998 20.2337 35.935 20.613 35.7682 20.8544C35.6013 21.0958 35.3208 21.3037 34.8544 21.2902C34.4694 21.279 34.3664 21.2068 34.284 21.1491C34.2666 21.1369 34.2502 21.1254 34.2322 21.1152V21.6305C34.2362 21.9819 34.2392 22.1507 34.2663 22.2132C34.3029 22.2973 34.3857 22.3491 34.5469 22.3888C34.5469 22.3888 34.6198 22.4059 34.6387 22.4242C34.6575 22.4425 34.6575 22.483 34.6575 22.483C34.6575 22.483 34.6613 22.5209 34.6462 22.5403C34.6311 22.5596 34.6019 22.5557 34.6019 22.5557L33.8879 22.5499L33.4575 22.5488C33.4575 22.5488 33.4123 22.5575 33.3953 22.5393C33.3784 22.5211 33.38 22.4831 33.38 22.4831C33.38 22.4831 33.3837 22.4422 33.4035 22.4239C33.4232 22.4056 33.4967 22.3851 33.4967 22.3851C33.6627 22.3384 33.7347 22.2891 33.7724 22.196C33.8027 22.121 33.8029 21.9819 33.8026 20.8468C33.8023 19.7704 33.8007 19.5696 33.776 19.5119C33.7396 19.4264 33.6483 19.4037 33.5182 19.3715H33.5182C33.4924 19.3651 33.4651 19.3583 33.4364 19.3506C33.4364 19.3506 33.3902 19.3445 33.3829 19.3282ZM35.4618 20.2065C35.4618 20.383 35.4587 20.6594 35.2711 20.836C35.0835 21.0127 34.7141 21.061 34.4634 21.0118C34.3843 20.9963 34.3391 20.9724 34.3043 20.954L34.3008 20.9522L34.2366 20.9183L34.2329 20.2982C34.2306 19.9096 34.2346 19.6564 34.2438 19.6202C34.2521 19.4153 34.5539 19.3898 34.7013 19.3974C35.3321 19.3974 35.4434 19.9297 35.4618 20.2065ZM31.4022 19.1623C31.4022 19.1623 31.3714 19.1741 31.3247 19.1919L31.1563 19.279L31.035 19.5822C30.9683 19.7491 30.8463 20.0552 30.7639 20.2627C30.6467 20.558 30.5289 20.853 30.4103 21.1478C30.3796 21.224 30.287 21.4561 30.2044 21.6635C30.1218 21.8709 30.0393 22.0683 30.021 22.1022C30.018 22.1078 30.0147 22.1139 30.0114 22.1203C29.9652 22.2072 29.885 22.3581 29.7434 22.3809C29.7434 22.3809 29.6655 22.3886 29.6367 22.4171C29.6078 22.4457 29.6106 22.469 29.6106 22.469V22.505C29.6106 22.505 29.6133 22.5224 29.6296 22.5311C29.6459 22.5398 29.668 22.5403 29.668 22.5403L30.1861 22.5344H30.7215C30.7215 22.5344 30.7594 22.5388 30.774 22.5267C30.7886 22.5145 30.7926 22.4965 30.7926 22.4965V22.4587C30.7926 22.4587 30.7852 22.4176 30.764 22.4016C30.7428 22.3856 30.6633 22.3746 30.6633 22.3746C30.4489 22.3464 30.4121 22.184 30.4385 22.038C30.4515 21.9663 30.5376 21.7009 30.6347 21.4337L30.6682 21.3414L31.2293 21.3371C31.5378 21.3347 31.8043 21.3363 31.8213 21.3406C31.8456 21.3468 31.8797 21.4161 31.9799 21.6631C32.1315 22.0373 32.1436 22.0829 32.1101 22.1529C32.108 22.1572 32.1058 22.1619 32.1035 22.167C32.072 22.2347 32.0108 22.3662 31.8566 22.3796C31.8566 22.3796 31.7748 22.3825 31.7545 22.407C31.7342 22.4315 31.7385 22.4597 31.7385 22.4597V22.4971C31.7385 22.4971 31.744 22.5191 31.7545 22.5278C31.765 22.5365 31.7828 22.5343 31.7828 22.5343L32.292 22.5306L33.0079 22.5306C33.0079 22.5306 33.036 22.5336 33.0436 22.5228C33.0512 22.512 33.0528 22.4992 33.0528 22.4992V22.4495C33.0528 22.4495 33.0497 22.423 33.0359 22.4084C33.0222 22.3939 32.9293 22.3785 32.9293 22.3785C32.8108 22.3593 32.7517 22.2613 32.7077 22.1883C32.6965 22.1696 32.6863 22.1526 32.6763 22.139C32.6559 22.1112 32.5831 21.9587 32.5261 21.812C32.4691 21.6654 32.3405 21.3341 32.2403 21.0759C32.1401 20.8177 32.0002 20.4574 31.9295 20.2754C31.8161 19.9832 31.7028 19.691 31.5896 19.3987L31.5895 19.3986C31.5268 19.2365 31.5015 19.1711 31.4946 19.1623C31.4721 19.1335 31.4022 19.1623 31.4022 19.1623V19.1623ZM31.3689 20.1483C31.3391 20.0754 31.3096 20.0023 31.2805 19.929C31.2333 19.8097 31.2153 19.7823 31.2007 19.8069C31.1965 19.8141 31.1667 19.8956 31.1346 19.988C30.927 20.5865 30.833 20.856 30.8142 20.9068C30.8023 20.9387 30.7926 20.9716 30.7926 20.9799C30.7926 20.9894 30.9615 20.995 31.2508 20.995C31.5028 20.995 31.709 20.9919 31.709 20.988C31.709 20.9842 31.6865 20.9271 31.659 20.861C31.6316 20.795 31.5643 20.6301 31.5096 20.4947C31.4548 20.3592 31.3915 20.2034 31.3689 20.1483Z" fill="#FF007A"/>
</g>
<defs>
<clipPath id="clip0_302_7688">
<rect width="32" height="8" fill="white" transform="translate(4 16)"/>
</clipPath>
</defs>
</svg>
