<svg width="55" height="51" viewBox="0 0 55 51" fill="none" xmlns="http://www.w3.org/2000/svg">
<path d="M47.5 30.5V38H55V43H47.5V50.5H42.5V43H35V38H42.5V30.5H47.5ZM47.52 0.5C48.89 0.5 50 1.6125 50 2.9825V26.355C48.3941 25.7877 46.7032 25.4986 45 25.5V5.5H5L5.0025 40.5L28.2325 17.2675C28.6624 16.8362 29.235 16.5768 29.8428 16.5382C30.4505 16.4995 31.0514 16.6842 31.5325 17.0575L31.765 17.27L40.63 26.145C38.6916 26.7357 36.8929 27.7128 35.3424 29.0174C33.7918 30.322 32.5215 31.9272 31.6081 33.736C30.6947 35.5448 30.1571 37.5199 30.0276 39.5422C29.8982 41.5644 30.1796 43.592 30.855 45.5025L2.48 45.5C1.82203 45.4993 1.19124 45.2375 0.726224 44.772C0.261205 44.3065 -3.33638e-07 43.6755 0 43.0175V2.9825C0.00457511 2.32595 0.267251 1.69754 0.731282 1.23304C1.19531 0.768545 1.82345 0.505237 2.48 0.5H47.52ZM15 10.5C16.3261 10.5 17.5979 11.0268 18.5355 11.9645C19.4732 12.9021 20 14.1739 20 15.5C20 16.8261 19.4732 18.0979 18.5355 19.0355C17.5979 19.9732 16.3261 20.5 15 20.5C13.6739 20.5 12.4021 19.9732 11.4645 19.0355C10.5268 18.0979 10 16.8261 10 15.5C10 14.1739 10.5268 12.9021 11.4645 11.9645C12.4021 11.0268 13.6739 10.5 15 10.5Z" fill="#718096"/>
</svg>
